<mxfile host="Electron" modified="2024-07-16T07:45:02.218Z" agent="Mozilla/5.0 (Windows NT 10.0; Win64; x64) AppleWebKit/537.36 (KHTML, like Gecko) draw.io/22.0.0 Chrome/114.0.5735.289 Electron/25.8.3 Safari/537.36" etag="qeH_UJGpSwsBQYA1gcGr" version="22.0.0" type="device" pages="3">
  <diagram name="Class" id="p9zoDYAlDjhE9k44D2_U">
    <mxGraphModel dx="584" dy="-264" grid="1" gridSize="10" guides="1" tooltips="1" connect="1" arrows="1" fold="1" page="1" pageScale="1" pageWidth="850" pageHeight="1100" math="0" shadow="0">
      <root>
        <mxCell id="0" />
        <mxCell id="1" parent="0" />
        <mxCell id="7TiSm22lBS3aOihAmO0y-1" value="" style="rounded=0;whiteSpace=wrap;html=1;dashed=1;" parent="1" vertex="1">
          <mxGeometry x="930" y="1160" width="1747.75" height="670" as="geometry" />
        </mxCell>
        <mxCell id="7TiSm22lBS3aOihAmO0y-2" value="" style="rounded=0;whiteSpace=wrap;html=1;dashed=1;" parent="1" vertex="1">
          <mxGeometry x="930" y="1830" width="1747.75" height="600" as="geometry" />
        </mxCell>
        <mxCell id="7TiSm22lBS3aOihAmO0y-3" value="" style="rounded=0;whiteSpace=wrap;html=1;dashed=1;" parent="1" vertex="1">
          <mxGeometry x="930" y="2427" width="1747.75" height="450" as="geometry" />
        </mxCell>
        <mxCell id="7TiSm22lBS3aOihAmO0y-4" value="&lt;b&gt;UserDto&lt;/b&gt;" style="swimlane;fontStyle=0;childLayout=stackLayout;horizontal=1;startSize=26;fillColor=none;horizontalStack=0;resizeParent=1;resizeParentMax=0;resizeLast=0;collapsible=1;marginBottom=0;whiteSpace=wrap;html=1;" parent="1" vertex="1">
          <mxGeometry x="1237.75" y="2250" width="182.5" height="164" as="geometry" />
        </mxCell>
        <mxCell id="7TiSm22lBS3aOihAmO0y-5" value="+ Id: GUID" style="text;strokeColor=none;fillColor=none;align=left;verticalAlign=top;spacingLeft=4;spacingRight=4;overflow=hidden;rotatable=0;points=[[0,0.5],[1,0.5]];portConstraint=eastwest;whiteSpace=wrap;html=1;" parent="7TiSm22lBS3aOihAmO0y-4" vertex="1">
          <mxGeometry y="26" width="182.5" height="26" as="geometry" />
        </mxCell>
        <mxCell id="7TiSm22lBS3aOihAmO0y-6" value="+ UserName: string" style="text;strokeColor=none;fillColor=none;align=left;verticalAlign=top;spacingLeft=4;spacingRight=4;overflow=hidden;rotatable=0;points=[[0,0.5],[1,0.5]];portConstraint=eastwest;whiteSpace=wrap;html=1;" parent="7TiSm22lBS3aOihAmO0y-4" vertex="1">
          <mxGeometry y="52" width="182.5" height="26" as="geometry" />
        </mxCell>
        <mxCell id="7TiSm22lBS3aOihAmO0y-7" value="+ Full Name: string" style="text;strokeColor=none;fillColor=none;align=left;verticalAlign=top;spacingLeft=4;spacingRight=4;overflow=hidden;rotatable=0;points=[[0,0.5],[1,0.5]];portConstraint=eastwest;whiteSpace=wrap;html=1;" parent="7TiSm22lBS3aOihAmO0y-4" vertex="1">
          <mxGeometry y="78" width="182.5" height="26" as="geometry" />
        </mxCell>
        <mxCell id="7TiSm22lBS3aOihAmO0y-8" value="+ Email: string" style="text;strokeColor=none;fillColor=none;align=left;verticalAlign=top;spacingLeft=4;spacingRight=4;overflow=hidden;rotatable=0;points=[[0,0.5],[1,0.5]];portConstraint=eastwest;whiteSpace=wrap;html=1;" parent="7TiSm22lBS3aOihAmO0y-4" vertex="1">
          <mxGeometry y="104" width="182.5" height="26" as="geometry" />
        </mxCell>
        <mxCell id="7TiSm22lBS3aOihAmO0y-9" value="" style="line;strokeWidth=1;fillColor=none;align=left;verticalAlign=middle;spacingTop=-1;spacingLeft=3;spacingRight=3;rotatable=0;labelPosition=right;points=[];portConstraint=eastwest;strokeColor=inherit;" parent="7TiSm22lBS3aOihAmO0y-4" vertex="1">
          <mxGeometry y="130" width="182.5" height="8" as="geometry" />
        </mxCell>
        <mxCell id="7TiSm22lBS3aOihAmO0y-10" value="+ IsDisabled(): boolean" style="text;strokeColor=none;fillColor=none;align=left;verticalAlign=top;spacingLeft=4;spacingRight=4;overflow=hidden;rotatable=0;points=[[0,0.5],[1,0.5]];portConstraint=eastwest;whiteSpace=wrap;html=1;" parent="7TiSm22lBS3aOihAmO0y-4" vertex="1">
          <mxGeometry y="138" width="182.5" height="26" as="geometry" />
        </mxCell>
        <mxCell id="7TiSm22lBS3aOihAmO0y-11" value="UsersService" style="swimlane;fontStyle=0;childLayout=stackLayout;horizontal=1;startSize=26;fillColor=none;horizontalStack=0;resizeParent=1;resizeParentMax=0;resizeLast=0;collapsible=1;marginBottom=0;whiteSpace=wrap;html=1;" parent="1" vertex="1">
          <mxGeometry x="974.75" y="2176" width="233" height="156" as="geometry" />
        </mxCell>
        <mxCell id="7TiSm22lBS3aOihAmO0y-13" value="+ CreateAsync(UserDto) : &amp;lt;User, string&amp;gt;" style="text;strokeColor=none;fillColor=none;align=left;verticalAlign=top;spacingLeft=4;spacingRight=4;overflow=hidden;rotatable=0;points=[[0,0.5],[1,0.5]];portConstraint=eastwest;whiteSpace=wrap;html=1;" parent="7TiSm22lBS3aOihAmO0y-11" vertex="1">
          <mxGeometry y="26" width="233" height="26" as="geometry" />
        </mxCell>
        <mxCell id="7TiSm22lBS3aOihAmO0y-14" value="+ GetAllAsync() : UserDto[];" style="text;strokeColor=none;fillColor=none;align=left;verticalAlign=top;spacingLeft=4;spacingRight=4;overflow=hidden;rotatable=0;points=[[0,0.5],[1,0.5]];portConstraint=eastwest;whiteSpace=wrap;html=1;" parent="7TiSm22lBS3aOihAmO0y-11" vertex="1">
          <mxGeometry y="52" width="233" height="26" as="geometry" />
        </mxCell>
        <mxCell id="7TiSm22lBS3aOihAmO0y-15" value="+ UpdateAsync(UserDto): void" style="text;strokeColor=none;fillColor=none;align=left;verticalAlign=top;spacingLeft=4;spacingRight=4;overflow=hidden;rotatable=0;points=[[0,0.5],[1,0.5]];portConstraint=eastwest;whiteSpace=wrap;html=1;" parent="7TiSm22lBS3aOihAmO0y-11" vertex="1">
          <mxGeometry y="78" width="233" height="26" as="geometry" />
        </mxCell>
        <mxCell id="7TiSm22lBS3aOihAmO0y-16" value="+ DisableAsync(GUID): void" style="text;strokeColor=none;fillColor=none;align=left;verticalAlign=top;spacingLeft=4;spacingRight=4;overflow=hidden;rotatable=0;points=[[0,0.5],[1,0.5]];portConstraint=eastwest;whiteSpace=wrap;html=1;" parent="7TiSm22lBS3aOihAmO0y-11" vertex="1">
          <mxGeometry y="104" width="233" height="26" as="geometry" />
        </mxCell>
        <mxCell id="7TiSm22lBS3aOihAmO0y-166" value="+ GetAsync(GUID): void" style="text;strokeColor=none;fillColor=none;align=left;verticalAlign=top;spacingLeft=4;spacingRight=4;overflow=hidden;rotatable=0;points=[[0,0.5],[1,0.5]];portConstraint=eastwest;whiteSpace=wrap;html=1;" parent="7TiSm22lBS3aOihAmO0y-11" vertex="1">
          <mxGeometry y="130" width="233" height="26" as="geometry" />
        </mxCell>
        <mxCell id="7TiSm22lBS3aOihAmO0y-19" value="«interface»&lt;br&gt;&lt;b&gt;IUsersService&lt;/b&gt;" style="html=1;whiteSpace=wrap;" parent="1" vertex="1">
          <mxGeometry x="986.25" y="2010" width="210" height="50" as="geometry" />
        </mxCell>
        <mxCell id="7TiSm22lBS3aOihAmO0y-20" value="" style="endArrow=block;dashed=1;endFill=0;endSize=12;html=1;rounded=0;entryX=0.5;entryY=1;entryDx=0;entryDy=0;exitX=0.5;exitY=0;exitDx=0;exitDy=0;" parent="1" source="7TiSm22lBS3aOihAmO0y-11" target="7TiSm22lBS3aOihAmO0y-19" edge="1">
          <mxGeometry width="160" relative="1" as="geometry">
            <mxPoint x="1152.5" y="2118" as="sourcePoint" />
            <mxPoint x="993.5" y="1999" as="targetPoint" />
          </mxGeometry>
        </mxCell>
        <mxCell id="7TiSm22lBS3aOihAmO0y-21" value="FoodAuth.BusinessLayer" style="text;html=1;strokeColor=default;fillColor=none;align=center;verticalAlign=middle;whiteSpace=wrap;rounded=0;dashed=1;" parent="1" vertex="1">
          <mxGeometry x="930" y="1830" width="170" height="30" as="geometry" />
        </mxCell>
        <mxCell id="7TiSm22lBS3aOihAmO0y-22" value="FoodAuth.DataAccess" style="text;html=1;strokeColor=default;fillColor=none;align=center;verticalAlign=middle;whiteSpace=wrap;rounded=0;dashed=1;" parent="1" vertex="1">
          <mxGeometry x="930" y="2427" width="170" height="30" as="geometry" />
        </mxCell>
        <mxCell id="7TiSm22lBS3aOihAmO0y-39" value="FoodAuth.WebAPI" style="text;html=1;strokeColor=default;fillColor=none;align=center;verticalAlign=middle;whiteSpace=wrap;rounded=0;dashed=1;" parent="1" vertex="1">
          <mxGeometry x="930" y="1160" width="170" height="30" as="geometry" />
        </mxCell>
        <mxCell id="7TiSm22lBS3aOihAmO0y-40" value="Use" style="endArrow=open;endSize=12;dashed=1;html=1;rounded=0;exitX=0.403;exitY=1.077;exitDx=0;exitDy=0;entryX=0;entryY=0.5;entryDx=0;entryDy=0;exitPerimeter=0;" parent="1" source="7TiSm22lBS3aOihAmO0y-166" target="7TiSm22lBS3aOihAmO0y-8" edge="1">
          <mxGeometry width="160" relative="1" as="geometry">
            <mxPoint x="1764.75" y="2470" as="sourcePoint" />
            <mxPoint x="1924.75" y="2470" as="targetPoint" />
            <Array as="points">
              <mxPoint x="1067.75" y="2370" />
            </Array>
          </mxGeometry>
        </mxCell>
        <mxCell id="7TiSm22lBS3aOihAmO0y-42" value="AccountsController" style="swimlane;fontStyle=0;childLayout=stackLayout;horizontal=1;startSize=26;fillColor=none;horizontalStack=0;resizeParent=1;resizeParentMax=0;resizeLast=0;collapsible=1;marginBottom=0;whiteSpace=wrap;html=1;" parent="1" vertex="1">
          <mxGeometry x="1527.75" y="1510" width="242" height="188" as="geometry" />
        </mxCell>
        <mxCell id="7TiSm22lBS3aOihAmO0y-44" value="+ Login(UserLoginModel) : IActionResult;" style="text;strokeColor=none;fillColor=none;align=left;verticalAlign=top;spacingLeft=4;spacingRight=4;overflow=hidden;rotatable=0;points=[[0,0.5],[1,0.5]];portConstraint=eastwest;whiteSpace=wrap;html=1;" parent="7TiSm22lBS3aOihAmO0y-42" vertex="1">
          <mxGeometry y="26" width="242" height="40" as="geometry" />
        </mxCell>
        <mxCell id="7TiSm22lBS3aOihAmO0y-45" value="+ ChangePassword(UserLoginModel) : LoginActionResponse;" style="text;strokeColor=none;fillColor=none;align=left;verticalAlign=top;spacingLeft=4;spacingRight=4;overflow=hidden;rotatable=0;points=[[0,0.5],[1,0.5]];portConstraint=eastwest;whiteSpace=wrap;html=1;" parent="7TiSm22lBS3aOihAmO0y-42" vertex="1">
          <mxGeometry y="66" width="242" height="40" as="geometry" />
        </mxCell>
        <mxCell id="7TiSm22lBS3aOihAmO0y-46" value="+ DisableUser(UserLoginModel) : IActionResult" style="text;strokeColor=none;fillColor=none;align=left;verticalAlign=top;spacingLeft=4;spacingRight=4;overflow=hidden;rotatable=0;points=[[0,0.5],[1,0.5]];portConstraint=eastwest;whiteSpace=wrap;html=1;" parent="7TiSm22lBS3aOihAmO0y-42" vertex="1">
          <mxGeometry y="106" width="242" height="42" as="geometry" />
        </mxCell>
        <mxCell id="7TiSm22lBS3aOihAmO0y-239" value="+ ResetPassword(ResetPasswordRequest) : IActionResult;" style="text;strokeColor=none;fillColor=none;align=left;verticalAlign=top;spacingLeft=4;spacingRight=4;overflow=hidden;rotatable=0;points=[[0,0.5],[1,0.5]];portConstraint=eastwest;whiteSpace=wrap;html=1;" parent="7TiSm22lBS3aOihAmO0y-42" vertex="1">
          <mxGeometry y="148" width="242" height="40" as="geometry" />
        </mxCell>
        <mxCell id="7TiSm22lBS3aOihAmO0y-47" value="&lt;b&gt;UserVerifier&lt;/b&gt;" style="swimlane;fontStyle=0;childLayout=stackLayout;horizontal=1;startSize=26;fillColor=none;horizontalStack=0;resizeParent=1;resizeParentMax=0;resizeLast=0;collapsible=1;marginBottom=0;whiteSpace=wrap;html=1;" parent="1" vertex="1">
          <mxGeometry x="1286.75" y="1930" width="250" height="60" as="geometry" />
        </mxCell>
        <mxCell id="7TiSm22lBS3aOihAmO0y-49" value="+ VerifyAsync(login, pass) : Task&amp;lt;bool&amp;gt;" style="text;strokeColor=none;fillColor=none;align=left;verticalAlign=top;spacingLeft=4;spacingRight=4;overflow=hidden;rotatable=0;points=[[0,0.5],[1,0.5]];portConstraint=eastwest;whiteSpace=wrap;html=1;" parent="7TiSm22lBS3aOihAmO0y-47" vertex="1">
          <mxGeometry y="26" width="250" height="34" as="geometry" />
        </mxCell>
        <mxCell id="7TiSm22lBS3aOihAmO0y-57" value="" style="endArrow=block;dashed=1;endFill=0;endSize=12;html=1;rounded=0;entryX=0.5;entryY=1;entryDx=0;entryDy=0;" parent="1" source="7TiSm22lBS3aOihAmO0y-47" target="7TiSm22lBS3aOihAmO0y-61" edge="1">
          <mxGeometry width="160" relative="1" as="geometry">
            <mxPoint x="1454.75" y="1820" as="sourcePoint" />
            <mxPoint x="1499.75" y="1520" as="targetPoint" />
          </mxGeometry>
        </mxCell>
        <mxCell id="7TiSm22lBS3aOihAmO0y-61" value="«interface»&lt;br&gt;&lt;b&gt;IUserVerifier&lt;/b&gt;" style="html=1;whiteSpace=wrap;" parent="1" vertex="1">
          <mxGeometry x="1286.75" y="1850" width="250" height="50" as="geometry" />
        </mxCell>
        <mxCell id="7TiSm22lBS3aOihAmO0y-64" value="«interface»&lt;br&gt;&lt;b&gt;IUnitOfWork&lt;/b&gt;" style="html=1;whiteSpace=wrap;" parent="1" vertex="1">
          <mxGeometry x="986.25" y="1870" width="200" height="50" as="geometry" />
        </mxCell>
        <mxCell id="7TiSm22lBS3aOihAmO0y-65" value="Use" style="endArrow=open;endSize=12;dashed=1;html=1;rounded=0;entryX=0;entryY=0.5;entryDx=0;entryDy=0;exitX=0;exitY=0.5;exitDx=0;exitDy=0;" parent="1" source="7TiSm22lBS3aOihAmO0y-13" target="7TiSm22lBS3aOihAmO0y-64" edge="1">
          <mxGeometry width="160" relative="1" as="geometry">
            <mxPoint x="974.75" y="2183" as="sourcePoint" />
            <mxPoint x="1024.75" y="1917" as="targetPoint" />
            <Array as="points">
              <mxPoint x="954.75" y="2215" />
              <mxPoint x="954.75" y="1917" />
            </Array>
          </mxGeometry>
        </mxCell>
        <mxCell id="7TiSm22lBS3aOihAmO0y-66" value="Use" style="endArrow=open;endSize=12;dashed=1;html=1;rounded=0;entryX=0.5;entryY=1;entryDx=0;entryDy=0;exitX=0;exitY=0.5;exitDx=0;exitDy=0;" parent="1" source="7TiSm22lBS3aOihAmO0y-49" target="7TiSm22lBS3aOihAmO0y-64" edge="1">
          <mxGeometry width="160" relative="1" as="geometry">
            <mxPoint x="1260.75" y="2060" as="sourcePoint" />
            <mxPoint x="1524.75" y="2020" as="targetPoint" />
            <Array as="points">
              <mxPoint x="1086.75" y="1973" />
            </Array>
          </mxGeometry>
        </mxCell>
        <mxCell id="7TiSm22lBS3aOihAmO0y-67" value="Extends" style="endArrow=block;endSize=16;endFill=0;html=1;rounded=0;entryX=0.5;entryY=1;entryDx=0;entryDy=0;" parent="1" source="7TiSm22lBS3aOihAmO0y-42" target="7TiSm22lBS3aOihAmO0y-68" edge="1">
          <mxGeometry width="160" relative="1" as="geometry">
            <mxPoint x="1864.75" y="1600" as="sourcePoint" />
            <mxPoint x="1936.1424050632913" y="1459" as="targetPoint" />
          </mxGeometry>
        </mxCell>
        <mxCell id="7TiSm22lBS3aOihAmO0y-68" value="ControllerBase" style="html=1;whiteSpace=wrap;" parent="1" vertex="1">
          <mxGeometry x="1548.5" y="1350" width="216.25" height="50" as="geometry" />
        </mxCell>
        <mxCell id="7TiSm22lBS3aOihAmO0y-69" value="«interface»&lt;br&gt;&lt;b&gt;ILogger&amp;lt;AccountsController&amp;gt;&lt;/b&gt;" style="html=1;whiteSpace=wrap;" parent="1" vertex="1">
          <mxGeometry x="1894.75" y="1330" width="265" height="50" as="geometry" />
        </mxCell>
        <mxCell id="7TiSm22lBS3aOihAmO0y-70" value="«interface»&lt;br&gt;&lt;b&gt;IUserVerificationService&lt;/b&gt;" style="html=1;whiteSpace=wrap;" parent="1" vertex="1">
          <mxGeometry x="1894.75" y="1400" width="265" height="50" as="geometry" />
        </mxCell>
        <mxCell id="7TiSm22lBS3aOihAmO0y-71" value="«interface»&lt;br&gt;&lt;b&gt;IOptions&amp;lt;Options.AuthenticationOptions&amp;gt;&lt;/b&gt;" style="html=1;whiteSpace=wrap;" parent="1" vertex="1">
          <mxGeometry x="1894.75" y="1470" width="265" height="50" as="geometry" />
        </mxCell>
        <mxCell id="7TiSm22lBS3aOihAmO0y-72" value="Use" style="endArrow=open;endSize=12;dashed=1;html=1;rounded=0;entryX=0;entryY=0.5;entryDx=0;entryDy=0;exitX=1;exitY=0.5;exitDx=0;exitDy=0;" parent="1" target="7TiSm22lBS3aOihAmO0y-69" edge="1">
          <mxGeometry width="160" relative="1" as="geometry">
            <mxPoint x="1769.75" y="1548" as="sourcePoint" />
            <mxPoint x="2084.75" y="1720" as="targetPoint" />
          </mxGeometry>
        </mxCell>
        <mxCell id="7TiSm22lBS3aOihAmO0y-73" value="Use" style="endArrow=open;endSize=12;dashed=1;html=1;rounded=0;entryX=0;entryY=0.5;entryDx=0;entryDy=0;exitX=1;exitY=0.5;exitDx=0;exitDy=0;" parent="1" target="7TiSm22lBS3aOihAmO0y-70" edge="1">
          <mxGeometry width="160" relative="1" as="geometry">
            <mxPoint x="1769.75" y="1548" as="sourcePoint" />
            <mxPoint x="2084.75" y="1720" as="targetPoint" />
          </mxGeometry>
        </mxCell>
        <mxCell id="7TiSm22lBS3aOihAmO0y-74" value="Use" style="endArrow=open;endSize=12;dashed=1;html=1;rounded=0;entryX=0;entryY=0.5;entryDx=0;entryDy=0;exitX=1;exitY=0.5;exitDx=0;exitDy=0;" parent="1" target="7TiSm22lBS3aOihAmO0y-71" edge="1">
          <mxGeometry width="160" relative="1" as="geometry">
            <mxPoint x="1769.75" y="1548" as="sourcePoint" />
            <mxPoint x="2084.75" y="1720" as="targetPoint" />
          </mxGeometry>
        </mxCell>
        <mxCell id="7TiSm22lBS3aOihAmO0y-75" value="UserLoginModel" style="swimlane;fontStyle=0;childLayout=stackLayout;horizontal=1;startSize=26;fillColor=none;horizontalStack=0;resizeParent=1;resizeParentMax=0;resizeLast=0;collapsible=1;marginBottom=0;whiteSpace=wrap;html=1;" parent="1" vertex="1">
          <mxGeometry x="1894.75" y="1540" width="270" height="52" as="geometry" />
        </mxCell>
        <mxCell id="7TiSm22lBS3aOihAmO0y-76" value="+ Id: GUID" style="text;strokeColor=none;fillColor=none;align=left;verticalAlign=top;spacingLeft=4;spacingRight=4;overflow=hidden;rotatable=0;points=[[0,0.5],[1,0.5]];portConstraint=eastwest;whiteSpace=wrap;html=1;" parent="7TiSm22lBS3aOihAmO0y-75" vertex="1">
          <mxGeometry y="26" width="270" height="26" as="geometry" />
        </mxCell>
        <mxCell id="7TiSm22lBS3aOihAmO0y-77" value="Use" style="endArrow=open;endSize=12;dashed=1;html=1;rounded=0;entryX=0;entryY=0.5;entryDx=0;entryDy=0;exitX=1;exitY=0.5;exitDx=0;exitDy=0;" parent="1" source="7TiSm22lBS3aOihAmO0y-44" target="7TiSm22lBS3aOihAmO0y-76" edge="1">
          <mxGeometry width="160" relative="1" as="geometry">
            <mxPoint x="1924.75" y="1720" as="sourcePoint" />
            <mxPoint x="2084.75" y="1720" as="targetPoint" />
          </mxGeometry>
        </mxCell>
        <mxCell id="7TiSm22lBS3aOihAmO0y-78" value="LoginActionResponse" style="swimlane;fontStyle=0;childLayout=stackLayout;horizontal=1;startSize=26;fillColor=none;horizontalStack=0;resizeParent=1;resizeParentMax=0;resizeLast=0;collapsible=1;marginBottom=0;whiteSpace=wrap;html=1;" parent="1" vertex="1">
          <mxGeometry x="1894.75" y="1607" width="270" height="104" as="geometry" />
        </mxCell>
        <mxCell id="7TiSm22lBS3aOihAmO0y-79" value="+ Token: string" style="text;strokeColor=none;fillColor=none;align=left;verticalAlign=top;spacingLeft=4;spacingRight=4;overflow=hidden;rotatable=0;points=[[0,0.5],[1,0.5]];portConstraint=eastwest;whiteSpace=wrap;html=1;" parent="7TiSm22lBS3aOihAmO0y-78" vertex="1">
          <mxGeometry y="26" width="270" height="26" as="geometry" />
        </mxCell>
        <mxCell id="7TiSm22lBS3aOihAmO0y-80" value="+ Role: string" style="text;strokeColor=none;fillColor=none;align=left;verticalAlign=top;spacingLeft=4;spacingRight=4;overflow=hidden;rotatable=0;points=[[0,0.5],[1,0.5]];portConstraint=eastwest;whiteSpace=wrap;html=1;" parent="7TiSm22lBS3aOihAmO0y-78" vertex="1">
          <mxGeometry y="52" width="270" height="26" as="geometry" />
        </mxCell>
        <mxCell id="7TiSm22lBS3aOihAmO0y-81" value="+ Message: string" style="text;strokeColor=none;fillColor=none;align=left;verticalAlign=top;spacingLeft=4;spacingRight=4;overflow=hidden;rotatable=0;points=[[0,0.5],[1,0.5]];portConstraint=eastwest;whiteSpace=wrap;html=1;" parent="7TiSm22lBS3aOihAmO0y-78" vertex="1">
          <mxGeometry y="78" width="270" height="26" as="geometry" />
        </mxCell>
        <mxCell id="7TiSm22lBS3aOihAmO0y-82" value="Use" style="endArrow=open;endSize=12;dashed=1;html=1;rounded=0;entryX=0.004;entryY=0.135;entryDx=0;entryDy=0;entryPerimeter=0;exitX=1;exitY=0.5;exitDx=0;exitDy=0;" parent="1" source="7TiSm22lBS3aOihAmO0y-45" target="7TiSm22lBS3aOihAmO0y-78" edge="1">
          <mxGeometry width="160" relative="1" as="geometry">
            <mxPoint x="1754.75" y="1710" as="sourcePoint" />
            <mxPoint x="2084.75" y="1720" as="targetPoint" />
          </mxGeometry>
        </mxCell>
        <mxCell id="7TiSm22lBS3aOihAmO0y-83" value="UsersController" style="swimlane;fontStyle=0;childLayout=stackLayout;horizontal=1;startSize=26;fillColor=none;horizontalStack=0;resizeParent=1;resizeParentMax=0;resizeLast=0;collapsible=1;marginBottom=0;whiteSpace=wrap;html=1;" parent="1" vertex="1">
          <mxGeometry x="1200" y="1510" width="300" height="146" as="geometry" />
        </mxCell>
        <mxCell id="7TiSm22lBS3aOihAmO0y-85" value="+ GetAll() : ActionResult&amp;lt;IEnumerable&amp;lt;UserModel&amp;gt;&amp;gt;;" style="text;strokeColor=none;fillColor=none;align=left;verticalAlign=top;spacingLeft=4;spacingRight=4;overflow=hidden;rotatable=0;points=[[0,0.5],[1,0.5]];portConstraint=eastwest;whiteSpace=wrap;html=1;" parent="7TiSm22lBS3aOihAmO0y-83" vertex="1">
          <mxGeometry y="26" width="300" height="30" as="geometry" />
        </mxCell>
        <mxCell id="7TiSm22lBS3aOihAmO0y-86" value="+ Create(UserCreateModel) : ActionResult;" style="text;strokeColor=none;fillColor=none;align=left;verticalAlign=top;spacingLeft=4;spacingRight=4;overflow=hidden;rotatable=0;points=[[0,0.5],[1,0.5]];portConstraint=eastwest;whiteSpace=wrap;html=1;" parent="7TiSm22lBS3aOihAmO0y-83" vertex="1">
          <mxGeometry y="56" width="300" height="30" as="geometry" />
        </mxCell>
        <mxCell id="7TiSm22lBS3aOihAmO0y-87" value="+ Update(UserModel) : ActionResult" style="text;strokeColor=none;fillColor=none;align=left;verticalAlign=top;spacingLeft=4;spacingRight=4;overflow=hidden;rotatable=0;points=[[0,0.5],[1,0.5]];portConstraint=eastwest;whiteSpace=wrap;html=1;" parent="7TiSm22lBS3aOihAmO0y-83" vertex="1">
          <mxGeometry y="86" width="300" height="30" as="geometry" />
        </mxCell>
        <mxCell id="7TiSm22lBS3aOihAmO0y-88" value="+ Delete(UserDeleteModel) : ActionResult" style="text;strokeColor=none;fillColor=none;align=left;verticalAlign=top;spacingLeft=4;spacingRight=4;overflow=hidden;rotatable=0;points=[[0,0.5],[1,0.5]];portConstraint=eastwest;whiteSpace=wrap;html=1;" parent="7TiSm22lBS3aOihAmO0y-83" vertex="1">
          <mxGeometry y="116" width="300" height="30" as="geometry" />
        </mxCell>
        <mxCell id="7TiSm22lBS3aOihAmO0y-89" value="Extends" style="endArrow=block;endSize=16;endFill=0;html=1;rounded=0;entryX=0;entryY=0.5;entryDx=0;entryDy=0;exitX=0.5;exitY=0;exitDx=0;exitDy=0;" parent="1" source="7TiSm22lBS3aOihAmO0y-83" target="7TiSm22lBS3aOihAmO0y-68" edge="1">
          <mxGeometry x="-0.4608" width="160" relative="1" as="geometry">
            <mxPoint x="1364.75" y="1700" as="sourcePoint" />
            <mxPoint x="1524.75" y="1700" as="targetPoint" />
            <Array as="points">
              <mxPoint x="1349.75" y="1375" />
            </Array>
            <mxPoint as="offset" />
          </mxGeometry>
        </mxCell>
        <mxCell id="7TiSm22lBS3aOihAmO0y-90" value="«interface»&lt;br&gt;&lt;b&gt;ILogger&amp;lt;UsersController&amp;gt;&lt;/b&gt;" style="html=1;whiteSpace=wrap;" parent="1" vertex="1">
          <mxGeometry x="949.75" y="1355" width="205" height="50" as="geometry" />
        </mxCell>
        <mxCell id="7TiSm22lBS3aOihAmO0y-91" value="«interface»&lt;br&gt;&lt;b&gt;IUsersService&lt;/b&gt;" style="html=1;whiteSpace=wrap;" parent="1" vertex="1">
          <mxGeometry x="949.75" y="1430" width="205" height="50" as="geometry" />
        </mxCell>
        <mxCell id="7TiSm22lBS3aOihAmO0y-92" value="Use" style="endArrow=open;endSize=12;dashed=1;html=1;rounded=0;entryX=1;entryY=0.5;entryDx=0;entryDy=0;exitX=0.25;exitY=0;exitDx=0;exitDy=0;" parent="1" source="7TiSm22lBS3aOihAmO0y-83" target="7TiSm22lBS3aOihAmO0y-90" edge="1">
          <mxGeometry x="-0.28" width="160" relative="1" as="geometry">
            <mxPoint x="1364.75" y="1600" as="sourcePoint" />
            <mxPoint x="1524.75" y="1600" as="targetPoint" />
            <Array as="points">
              <mxPoint x="1274.75" y="1380" />
            </Array>
            <mxPoint as="offset" />
          </mxGeometry>
        </mxCell>
        <mxCell id="7TiSm22lBS3aOihAmO0y-93" value="Use" style="endArrow=open;endSize=12;dashed=1;html=1;rounded=0;entryX=0.5;entryY=1;entryDx=0;entryDy=0;exitX=0;exitY=0.118;exitDx=0;exitDy=0;exitPerimeter=0;" parent="1" source="7TiSm22lBS3aOihAmO0y-83" target="7TiSm22lBS3aOihAmO0y-91" edge="1">
          <mxGeometry x="0.5776" width="160" relative="1" as="geometry">
            <mxPoint x="1364.75" y="1660" as="sourcePoint" />
            <mxPoint x="1524.75" y="1660" as="targetPoint" />
            <Array as="points">
              <mxPoint x="1054.75" y="1530" />
            </Array>
            <mxPoint as="offset" />
          </mxGeometry>
        </mxCell>
        <mxCell id="7TiSm22lBS3aOihAmO0y-94" value="UserCreateModel" style="swimlane;fontStyle=0;childLayout=stackLayout;horizontal=1;startSize=26;fillColor=none;horizontalStack=0;resizeParent=1;resizeParentMax=0;resizeLast=0;collapsible=1;marginBottom=0;whiteSpace=wrap;html=1;" parent="1" vertex="1">
          <mxGeometry x="1224.75" y="1688" width="145" height="104" as="geometry" />
        </mxCell>
        <mxCell id="7TiSm22lBS3aOihAmO0y-95" value="+ UserName: string" style="text;strokeColor=none;fillColor=none;align=left;verticalAlign=top;spacingLeft=4;spacingRight=4;overflow=hidden;rotatable=0;points=[[0,0.5],[1,0.5]];portConstraint=eastwest;whiteSpace=wrap;html=1;" parent="7TiSm22lBS3aOihAmO0y-94" vertex="1">
          <mxGeometry y="26" width="145" height="26" as="geometry" />
        </mxCell>
        <mxCell id="7TiSm22lBS3aOihAmO0y-96" value="+ Full Name: string" style="text;strokeColor=none;fillColor=none;align=left;verticalAlign=top;spacingLeft=4;spacingRight=4;overflow=hidden;rotatable=0;points=[[0,0.5],[1,0.5]];portConstraint=eastwest;whiteSpace=wrap;html=1;" parent="7TiSm22lBS3aOihAmO0y-94" vertex="1">
          <mxGeometry y="52" width="145" height="26" as="geometry" />
        </mxCell>
        <mxCell id="7TiSm22lBS3aOihAmO0y-97" value="+ Email: string" style="text;strokeColor=none;fillColor=none;align=left;verticalAlign=top;spacingLeft=4;spacingRight=4;overflow=hidden;rotatable=0;points=[[0,0.5],[1,0.5]];portConstraint=eastwest;whiteSpace=wrap;html=1;" parent="7TiSm22lBS3aOihAmO0y-94" vertex="1">
          <mxGeometry y="78" width="145" height="26" as="geometry" />
        </mxCell>
        <mxCell id="7TiSm22lBS3aOihAmO0y-98" value="UserModel" style="swimlane;fontStyle=0;childLayout=stackLayout;horizontal=1;startSize=26;fillColor=none;horizontalStack=0;resizeParent=1;resizeParentMax=0;resizeLast=0;collapsible=1;marginBottom=0;whiteSpace=wrap;html=1;" parent="1" vertex="1">
          <mxGeometry x="949.75" y="1555" width="175" height="156" as="geometry" />
        </mxCell>
        <mxCell id="7TiSm22lBS3aOihAmO0y-99" value="+ Id: string" style="text;strokeColor=none;fillColor=none;align=left;verticalAlign=top;spacingLeft=4;spacingRight=4;overflow=hidden;rotatable=0;points=[[0,0.5],[1,0.5]];portConstraint=eastwest;whiteSpace=wrap;html=1;" parent="7TiSm22lBS3aOihAmO0y-98" vertex="1">
          <mxGeometry y="26" width="175" height="26" as="geometry" />
        </mxCell>
        <mxCell id="7TiSm22lBS3aOihAmO0y-100" value="+ UserName: string" style="text;strokeColor=none;fillColor=none;align=left;verticalAlign=top;spacingLeft=4;spacingRight=4;overflow=hidden;rotatable=0;points=[[0,0.5],[1,0.5]];portConstraint=eastwest;whiteSpace=wrap;html=1;" parent="7TiSm22lBS3aOihAmO0y-98" vertex="1">
          <mxGeometry y="52" width="175" height="26" as="geometry" />
        </mxCell>
        <mxCell id="7TiSm22lBS3aOihAmO0y-101" value="+ Full Name: string" style="text;strokeColor=none;fillColor=none;align=left;verticalAlign=top;spacingLeft=4;spacingRight=4;overflow=hidden;rotatable=0;points=[[0,0.5],[1,0.5]];portConstraint=eastwest;whiteSpace=wrap;html=1;" parent="7TiSm22lBS3aOihAmO0y-98" vertex="1">
          <mxGeometry y="78" width="175" height="26" as="geometry" />
        </mxCell>
        <mxCell id="7TiSm22lBS3aOihAmO0y-102" value="+ Email: string" style="text;strokeColor=none;fillColor=none;align=left;verticalAlign=top;spacingLeft=4;spacingRight=4;overflow=hidden;rotatable=0;points=[[0,0.5],[1,0.5]];portConstraint=eastwest;whiteSpace=wrap;html=1;" parent="7TiSm22lBS3aOihAmO0y-98" vertex="1">
          <mxGeometry y="104" width="175" height="26" as="geometry" />
        </mxCell>
        <mxCell id="7TiSm22lBS3aOihAmO0y-103" value="+ State: enum" style="text;strokeColor=none;fillColor=none;align=left;verticalAlign=top;spacingLeft=4;spacingRight=4;overflow=hidden;rotatable=0;points=[[0,0.5],[1,0.5]];portConstraint=eastwest;whiteSpace=wrap;html=1;" parent="7TiSm22lBS3aOihAmO0y-98" vertex="1">
          <mxGeometry y="130" width="175" height="26" as="geometry" />
        </mxCell>
        <mxCell id="7TiSm22lBS3aOihAmO0y-104" value="UserDeleteModel" style="swimlane;fontStyle=0;childLayout=stackLayout;horizontal=1;startSize=26;fillColor=none;horizontalStack=0;resizeParent=1;resizeParentMax=0;resizeLast=0;collapsible=1;marginBottom=0;whiteSpace=wrap;html=1;" parent="1" vertex="1">
          <mxGeometry x="949.75" y="1740" width="175" height="52" as="geometry" />
        </mxCell>
        <mxCell id="7TiSm22lBS3aOihAmO0y-105" value="+ Id: string" style="text;strokeColor=none;fillColor=none;align=left;verticalAlign=top;spacingLeft=4;spacingRight=4;overflow=hidden;rotatable=0;points=[[0,0.5],[1,0.5]];portConstraint=eastwest;whiteSpace=wrap;html=1;" parent="7TiSm22lBS3aOihAmO0y-104" vertex="1">
          <mxGeometry y="26" width="175" height="26" as="geometry" />
        </mxCell>
        <mxCell id="7TiSm22lBS3aOihAmO0y-106" value="Use" style="endArrow=open;endSize=12;dashed=1;html=1;rounded=0;exitX=0.747;exitY=1.1;exitDx=0;exitDy=0;exitPerimeter=0;entryX=0.993;entryY=0.173;entryDx=0;entryDy=0;entryPerimeter=0;" parent="1" source="7TiSm22lBS3aOihAmO0y-88" target="7TiSm22lBS3aOihAmO0y-94" edge="1">
          <mxGeometry width="160" relative="1" as="geometry">
            <mxPoint x="1364.75" y="1780" as="sourcePoint" />
            <mxPoint x="1524.75" y="1780" as="targetPoint" />
            <Array as="points">
              <mxPoint x="1424.75" y="1706" />
            </Array>
          </mxGeometry>
        </mxCell>
        <mxCell id="7TiSm22lBS3aOihAmO0y-107" value="Use" style="endArrow=open;endSize=12;dashed=1;html=1;rounded=0;entryX=1;entryY=0.25;entryDx=0;entryDy=0;exitX=0;exitY=0.5;exitDx=0;exitDy=0;" parent="1" source="7TiSm22lBS3aOihAmO0y-88" target="7TiSm22lBS3aOihAmO0y-104" edge="1">
          <mxGeometry width="160" relative="1" as="geometry">
            <mxPoint x="1364.75" y="1780" as="sourcePoint" />
            <mxPoint x="1524.75" y="1780" as="targetPoint" />
          </mxGeometry>
        </mxCell>
        <mxCell id="7TiSm22lBS3aOihAmO0y-108" value="Use" style="endArrow=open;endSize=12;dashed=1;html=1;rounded=0;entryX=1;entryY=0.096;entryDx=0;entryDy=0;entryPerimeter=0;exitX=0;exitY=0.5;exitDx=0;exitDy=0;" parent="1" source="7TiSm22lBS3aOihAmO0y-85" target="7TiSm22lBS3aOihAmO0y-98" edge="1">
          <mxGeometry width="160" relative="1" as="geometry">
            <mxPoint x="1364.75" y="1780" as="sourcePoint" />
            <mxPoint x="1524.75" y="1780" as="targetPoint" />
          </mxGeometry>
        </mxCell>
        <mxCell id="7TiSm22lBS3aOihAmO0y-109" value="Use" style="endArrow=open;endSize=12;dashed=1;html=1;rounded=0;exitX=0.5;exitY=0;exitDx=0;exitDy=0;entryX=0;entryY=0.5;entryDx=0;entryDy=0;" parent="1" source="7TiSm22lBS3aOihAmO0y-11" target="7TiSm22lBS3aOihAmO0y-167" edge="1">
          <mxGeometry width="160" relative="1" as="geometry">
            <mxPoint x="1482.75" y="2270" as="sourcePoint" />
            <mxPoint x="1472.75" y="2259" as="targetPoint" />
          </mxGeometry>
        </mxCell>
        <mxCell id="7TiSm22lBS3aOihAmO0y-113" value="UsersRepository" style="swimlane;fontStyle=0;childLayout=stackLayout;horizontal=1;startSize=26;fillColor=none;horizontalStack=0;resizeParent=1;resizeParentMax=0;resizeLast=0;collapsible=1;marginBottom=0;whiteSpace=wrap;html=1;" parent="1" vertex="1">
          <mxGeometry x="957.75" y="2590" width="223" height="130" as="geometry" />
        </mxCell>
        <mxCell id="7TiSm22lBS3aOihAmO0y-114" value="+ Create(User) : User;" style="text;strokeColor=none;fillColor=none;align=left;verticalAlign=top;spacingLeft=4;spacingRight=4;overflow=hidden;rotatable=0;points=[[0,0.5],[1,0.5]];portConstraint=eastwest;whiteSpace=wrap;html=1;" parent="7TiSm22lBS3aOihAmO0y-113" vertex="1">
          <mxGeometry y="26" width="223" height="26" as="geometry" />
        </mxCell>
        <mxCell id="7TiSm22lBS3aOihAmO0y-115" value="+ GetAll() : User[];" style="text;strokeColor=none;fillColor=none;align=left;verticalAlign=top;spacingLeft=4;spacingRight=4;overflow=hidden;rotatable=0;points=[[0,0.5],[1,0.5]];portConstraint=eastwest;whiteSpace=wrap;html=1;" parent="7TiSm22lBS3aOihAmO0y-113" vertex="1">
          <mxGeometry y="52" width="223" height="26" as="geometry" />
        </mxCell>
        <mxCell id="7TiSm22lBS3aOihAmO0y-116" value="+ Update(User): void" style="text;strokeColor=none;fillColor=none;align=left;verticalAlign=top;spacingLeft=4;spacingRight=4;overflow=hidden;rotatable=0;points=[[0,0.5],[1,0.5]];portConstraint=eastwest;whiteSpace=wrap;html=1;" parent="7TiSm22lBS3aOihAmO0y-113" vertex="1">
          <mxGeometry y="78" width="223" height="26" as="geometry" />
        </mxCell>
        <mxCell id="7TiSm22lBS3aOihAmO0y-117" value="+ Delete(GUID): void" style="text;strokeColor=none;fillColor=none;align=left;verticalAlign=top;spacingLeft=4;spacingRight=4;overflow=hidden;rotatable=0;points=[[0,0.5],[1,0.5]];portConstraint=eastwest;whiteSpace=wrap;html=1;" parent="7TiSm22lBS3aOihAmO0y-113" vertex="1">
          <mxGeometry y="104" width="223" height="26" as="geometry" />
        </mxCell>
        <mxCell id="7TiSm22lBS3aOihAmO0y-118" value="«interface»&lt;br&gt;&lt;b&gt;IUsersRepository&lt;/b&gt;" style="html=1;whiteSpace=wrap;" parent="1" vertex="1">
          <mxGeometry x="960.75" y="2470" width="220" height="50" as="geometry" />
        </mxCell>
        <mxCell id="7TiSm22lBS3aOihAmO0y-119" value="" style="endArrow=block;dashed=1;endFill=0;endSize=12;html=1;rounded=0;entryX=0.5;entryY=1;entryDx=0;entryDy=0;exitX=0.5;exitY=0;exitDx=0;exitDy=0;" parent="1" source="7TiSm22lBS3aOihAmO0y-113" target="7TiSm22lBS3aOihAmO0y-118" edge="1">
          <mxGeometry width="160" relative="1" as="geometry">
            <mxPoint x="1145.25" y="2580" as="sourcePoint" />
            <mxPoint x="947.25" y="2509" as="targetPoint" />
          </mxGeometry>
        </mxCell>
        <mxCell id="7TiSm22lBS3aOihAmO0y-120" value="User" style="swimlane;fontStyle=0;childLayout=stackLayout;horizontal=1;startSize=26;fillColor=none;horizontalStack=0;resizeParent=1;resizeParentMax=0;resizeLast=0;collapsible=1;marginBottom=0;whiteSpace=wrap;html=1;" parent="1" vertex="1">
          <mxGeometry x="1220.75" y="2538" width="140" height="208" as="geometry" />
        </mxCell>
        <mxCell id="7TiSm22lBS3aOihAmO0y-121" value="+ Id: GUID" style="text;strokeColor=none;fillColor=none;align=left;verticalAlign=top;spacingLeft=4;spacingRight=4;overflow=hidden;rotatable=0;points=[[0,0.5],[1,0.5]];portConstraint=eastwest;whiteSpace=wrap;html=1;" parent="7TiSm22lBS3aOihAmO0y-120" vertex="1">
          <mxGeometry y="26" width="140" height="26" as="geometry" />
        </mxCell>
        <mxCell id="7TiSm22lBS3aOihAmO0y-122" value="+ LoginName: string" style="text;strokeColor=none;fillColor=none;align=left;verticalAlign=top;spacingLeft=4;spacingRight=4;overflow=hidden;rotatable=0;points=[[0,0.5],[1,0.5]];portConstraint=eastwest;whiteSpace=wrap;html=1;" parent="7TiSm22lBS3aOihAmO0y-120" vertex="1">
          <mxGeometry y="52" width="140" height="26" as="geometry" />
        </mxCell>
        <mxCell id="7TiSm22lBS3aOihAmO0y-123" value="+ FirstName: string" style="text;strokeColor=none;fillColor=none;align=left;verticalAlign=top;spacingLeft=4;spacingRight=4;overflow=hidden;rotatable=0;points=[[0,0.5],[1,0.5]];portConstraint=eastwest;whiteSpace=wrap;html=1;" parent="7TiSm22lBS3aOihAmO0y-120" vertex="1">
          <mxGeometry y="78" width="140" height="26" as="geometry" />
        </mxCell>
        <mxCell id="7TiSm22lBS3aOihAmO0y-124" value="+ LastName: string" style="text;strokeColor=none;fillColor=none;align=left;verticalAlign=top;spacingLeft=4;spacingRight=4;overflow=hidden;rotatable=0;points=[[0,0.5],[1,0.5]];portConstraint=eastwest;whiteSpace=wrap;html=1;" parent="7TiSm22lBS3aOihAmO0y-120" vertex="1">
          <mxGeometry y="104" width="140" height="26" as="geometry" />
        </mxCell>
        <mxCell id="7TiSm22lBS3aOihAmO0y-125" value="+ IsDisabled: bool" style="text;strokeColor=none;fillColor=none;align=left;verticalAlign=top;spacingLeft=4;spacingRight=4;overflow=hidden;rotatable=0;points=[[0,0.5],[1,0.5]];portConstraint=eastwest;whiteSpace=wrap;html=1;" parent="7TiSm22lBS3aOihAmO0y-120" vertex="1">
          <mxGeometry y="130" width="140" height="26" as="geometry" />
        </mxCell>
        <mxCell id="7TiSm22lBS3aOihAmO0y-126" value="+ Password: string" style="text;strokeColor=none;fillColor=none;align=left;verticalAlign=top;spacingLeft=4;spacingRight=4;overflow=hidden;rotatable=0;points=[[0,0.5],[1,0.5]];portConstraint=eastwest;whiteSpace=wrap;html=1;" parent="7TiSm22lBS3aOihAmO0y-120" vertex="1">
          <mxGeometry y="156" width="140" height="26" as="geometry" />
        </mxCell>
        <mxCell id="7TiSm22lBS3aOihAmO0y-127" value="+ Role: UserRole" style="text;strokeColor=none;fillColor=none;align=left;verticalAlign=top;spacingLeft=4;spacingRight=4;overflow=hidden;rotatable=0;points=[[0,0.5],[1,0.5]];portConstraint=eastwest;whiteSpace=wrap;html=1;" parent="7TiSm22lBS3aOihAmO0y-120" vertex="1">
          <mxGeometry y="182" width="140" height="26" as="geometry" />
        </mxCell>
        <mxCell id="7TiSm22lBS3aOihAmO0y-128" value="Use" style="endArrow=open;endSize=12;dashed=1;html=1;rounded=0;entryX=-0.006;entryY=0.067;entryDx=0;entryDy=0;entryPerimeter=0;exitX=1;exitY=0.5;exitDx=0;exitDy=0;" parent="1" target="7TiSm22lBS3aOihAmO0y-120" edge="1">
          <mxGeometry width="160" relative="1" as="geometry">
            <mxPoint x="1180.75" y="2629" as="sourcePoint" />
            <mxPoint x="1297.75" y="2517.5" as="targetPoint" />
          </mxGeometry>
        </mxCell>
        <mxCell id="7TiSm22lBS3aOihAmO0y-129" value="ApiKey" style="swimlane;fontStyle=0;childLayout=stackLayout;horizontal=1;startSize=26;fillColor=none;horizontalStack=0;resizeParent=1;resizeParentMax=0;resizeLast=0;collapsible=1;marginBottom=0;whiteSpace=wrap;html=1;" parent="1" vertex="1">
          <mxGeometry x="1657.75" y="2538" width="140" height="104" as="geometry" />
        </mxCell>
        <mxCell id="7TiSm22lBS3aOihAmO0y-130" value="+ Id: GUID" style="text;strokeColor=none;fillColor=none;align=left;verticalAlign=top;spacingLeft=4;spacingRight=4;overflow=hidden;rotatable=0;points=[[0,0.5],[1,0.5]];portConstraint=eastwest;whiteSpace=wrap;html=1;" parent="7TiSm22lBS3aOihAmO0y-129" vertex="1">
          <mxGeometry y="26" width="140" height="26" as="geometry" />
        </mxCell>
        <mxCell id="7TiSm22lBS3aOihAmO0y-131" value="+ Token: string" style="text;strokeColor=none;fillColor=none;align=left;verticalAlign=top;spacingLeft=4;spacingRight=4;overflow=hidden;rotatable=0;points=[[0,0.5],[1,0.5]];portConstraint=eastwest;whiteSpace=wrap;html=1;" parent="7TiSm22lBS3aOihAmO0y-129" vertex="1">
          <mxGeometry y="52" width="140" height="26" as="geometry" />
        </mxCell>
        <mxCell id="7TiSm22lBS3aOihAmO0y-132" value="+ ExpiryDate: DateTime" style="text;strokeColor=none;fillColor=none;align=left;verticalAlign=top;spacingLeft=4;spacingRight=4;overflow=hidden;rotatable=0;points=[[0,0.5],[1,0.5]];portConstraint=eastwest;whiteSpace=wrap;html=1;" parent="7TiSm22lBS3aOihAmO0y-129" vertex="1">
          <mxGeometry y="78" width="140" height="26" as="geometry" />
        </mxCell>
        <mxCell id="7TiSm22lBS3aOihAmO0y-133" value="UserContact" style="swimlane;fontStyle=0;childLayout=stackLayout;horizontal=1;startSize=26;fillColor=none;horizontalStack=0;resizeParent=1;resizeParentMax=0;resizeLast=0;collapsible=1;marginBottom=0;whiteSpace=wrap;html=1;" parent="1" vertex="1">
          <mxGeometry x="2330.75" y="2579.5" width="207" height="130" as="geometry" />
        </mxCell>
        <mxCell id="7TiSm22lBS3aOihAmO0y-134" value="+ Id: GUID" style="text;strokeColor=none;fillColor=none;align=left;verticalAlign=top;spacingLeft=4;spacingRight=4;overflow=hidden;rotatable=0;points=[[0,0.5],[1,0.5]];portConstraint=eastwest;whiteSpace=wrap;html=1;" parent="7TiSm22lBS3aOihAmO0y-133" vertex="1">
          <mxGeometry y="26" width="207" height="26" as="geometry" />
        </mxCell>
        <mxCell id="7TiSm22lBS3aOihAmO0y-135" value="+ UserId: GUID" style="text;strokeColor=none;fillColor=none;align=left;verticalAlign=top;spacingLeft=4;spacingRight=4;overflow=hidden;rotatable=0;points=[[0,0.5],[1,0.5]];portConstraint=eastwest;whiteSpace=wrap;html=1;" parent="7TiSm22lBS3aOihAmO0y-133" vertex="1">
          <mxGeometry y="52" width="207" height="26" as="geometry" />
        </mxCell>
        <mxCell id="7TiSm22lBS3aOihAmO0y-136" value="+ ContactType: UserContactType" style="text;strokeColor=none;fillColor=none;align=left;verticalAlign=top;spacingLeft=4;spacingRight=4;overflow=hidden;rotatable=0;points=[[0,0.5],[1,0.5]];portConstraint=eastwest;whiteSpace=wrap;html=1;" parent="7TiSm22lBS3aOihAmO0y-133" vertex="1">
          <mxGeometry y="78" width="207" height="26" as="geometry" />
        </mxCell>
        <mxCell id="7TiSm22lBS3aOihAmO0y-137" value="+ Contact: string" style="text;strokeColor=none;fillColor=none;align=left;verticalAlign=top;spacingLeft=4;spacingRight=4;overflow=hidden;rotatable=0;points=[[0,0.5],[1,0.5]];portConstraint=eastwest;whiteSpace=wrap;html=1;" parent="7TiSm22lBS3aOihAmO0y-133" vertex="1">
          <mxGeometry y="104" width="207" height="26" as="geometry" />
        </mxCell>
        <mxCell id="7TiSm22lBS3aOihAmO0y-138" value="ApiKeyRepository" style="swimlane;fontStyle=0;childLayout=stackLayout;horizontal=1;startSize=26;fillColor=none;horizontalStack=0;resizeParent=1;resizeParentMax=0;resizeLast=0;collapsible=1;marginBottom=0;whiteSpace=wrap;html=1;" parent="1" vertex="1">
          <mxGeometry x="1394.75" y="2551" width="223" height="156" as="geometry" />
        </mxCell>
        <mxCell id="7TiSm22lBS3aOihAmO0y-139" value="+ Create(ApiKey) : User;" style="text;strokeColor=none;fillColor=none;align=left;verticalAlign=top;spacingLeft=4;spacingRight=4;overflow=hidden;rotatable=0;points=[[0,0.5],[1,0.5]];portConstraint=eastwest;whiteSpace=wrap;html=1;" parent="7TiSm22lBS3aOihAmO0y-138" vertex="1">
          <mxGeometry y="26" width="223" height="26" as="geometry" />
        </mxCell>
        <mxCell id="7TiSm22lBS3aOihAmO0y-140" value="+ GetAllAsync() : User[];" style="text;strokeColor=none;fillColor=none;align=left;verticalAlign=top;spacingLeft=4;spacingRight=4;overflow=hidden;rotatable=0;points=[[0,0.5],[1,0.5]];portConstraint=eastwest;whiteSpace=wrap;html=1;" parent="7TiSm22lBS3aOihAmO0y-138" vertex="1">
          <mxGeometry y="52" width="223" height="26" as="geometry" />
        </mxCell>
        <mxCell id="7TiSm22lBS3aOihAmO0y-141" value="+ Update(ApiKey): void" style="text;strokeColor=none;fillColor=none;align=left;verticalAlign=top;spacingLeft=4;spacingRight=4;overflow=hidden;rotatable=0;points=[[0,0.5],[1,0.5]];portConstraint=eastwest;whiteSpace=wrap;html=1;" parent="7TiSm22lBS3aOihAmO0y-138" vertex="1">
          <mxGeometry y="78" width="223" height="26" as="geometry" />
        </mxCell>
        <mxCell id="7TiSm22lBS3aOihAmO0y-142" value="+ Delete(ApiKey): void" style="text;strokeColor=none;fillColor=none;align=left;verticalAlign=top;spacingLeft=4;spacingRight=4;overflow=hidden;rotatable=0;points=[[0,0.5],[1,0.5]];portConstraint=eastwest;whiteSpace=wrap;html=1;" parent="7TiSm22lBS3aOihAmO0y-138" vertex="1">
          <mxGeometry y="104" width="223" height="26" as="geometry" />
        </mxCell>
        <mxCell id="7TiSm22lBS3aOihAmO0y-143" value="+ GetByIdOrDefaultAsync(GUID): void" style="text;strokeColor=none;fillColor=none;align=left;verticalAlign=top;spacingLeft=4;spacingRight=4;overflow=hidden;rotatable=0;points=[[0,0.5],[1,0.5]];portConstraint=eastwest;whiteSpace=wrap;html=1;" parent="7TiSm22lBS3aOihAmO0y-138" vertex="1">
          <mxGeometry y="130" width="223" height="26" as="geometry" />
        </mxCell>
        <mxCell id="7TiSm22lBS3aOihAmO0y-144" value="«interface»&lt;br&gt;&lt;b&gt;IApiKeyRepository&lt;/b&gt;" style="html=1;whiteSpace=wrap;" parent="1" vertex="1">
          <mxGeometry x="1397.75" y="2440" width="220" height="50" as="geometry" />
        </mxCell>
        <mxCell id="7TiSm22lBS3aOihAmO0y-145" value="" style="endArrow=block;dashed=1;endFill=0;endSize=12;html=1;rounded=0;entryX=0.5;entryY=1;entryDx=0;entryDy=0;exitX=0.5;exitY=0;exitDx=0;exitDy=0;" parent="1" source="7TiSm22lBS3aOihAmO0y-138" target="7TiSm22lBS3aOihAmO0y-144" edge="1">
          <mxGeometry width="160" relative="1" as="geometry">
            <mxPoint x="1561.25" y="2574" as="sourcePoint" />
            <mxPoint x="1363.25" y="2503" as="targetPoint" />
          </mxGeometry>
        </mxCell>
        <mxCell id="7TiSm22lBS3aOihAmO0y-146" value="UserContactsRepository" style="swimlane;fontStyle=0;childLayout=stackLayout;horizontal=1;startSize=26;fillColor=none;horizontalStack=0;resizeParent=1;resizeParentMax=0;resizeLast=0;collapsible=1;marginBottom=0;whiteSpace=wrap;html=1;" parent="1" vertex="1">
          <mxGeometry x="1837.75" y="2570" width="450" height="208" as="geometry" />
        </mxCell>
        <mxCell id="7TiSm22lBS3aOihAmO0y-147" value="+ Create(UserContact) : void;" style="text;strokeColor=none;fillColor=none;align=left;verticalAlign=top;spacingLeft=4;spacingRight=4;overflow=hidden;rotatable=0;points=[[0,0.5],[1,0.5]];portConstraint=eastwest;whiteSpace=wrap;html=1;" parent="7TiSm22lBS3aOihAmO0y-146" vertex="1">
          <mxGeometry y="26" width="450" height="26" as="geometry" />
        </mxCell>
        <mxCell id="7TiSm22lBS3aOihAmO0y-148" value="+ GetAllAsync() : UserContact[];" style="text;strokeColor=none;fillColor=none;align=left;verticalAlign=top;spacingLeft=4;spacingRight=4;overflow=hidden;rotatable=0;points=[[0,0.5],[1,0.5]];portConstraint=eastwest;whiteSpace=wrap;html=1;" parent="7TiSm22lBS3aOihAmO0y-146" vertex="1">
          <mxGeometry y="52" width="450" height="26" as="geometry" />
        </mxCell>
        <mxCell id="7TiSm22lBS3aOihAmO0y-149" value="+ Update(UserContact): void" style="text;strokeColor=none;fillColor=none;align=left;verticalAlign=top;spacingLeft=4;spacingRight=4;overflow=hidden;rotatable=0;points=[[0,0.5],[1,0.5]];portConstraint=eastwest;whiteSpace=wrap;html=1;" parent="7TiSm22lBS3aOihAmO0y-146" vertex="1">
          <mxGeometry y="78" width="450" height="26" as="geometry" />
        </mxCell>
        <mxCell id="7TiSm22lBS3aOihAmO0y-150" value="+ Delete(UserContact): void" style="text;strokeColor=none;fillColor=none;align=left;verticalAlign=top;spacingLeft=4;spacingRight=4;overflow=hidden;rotatable=0;points=[[0,0.5],[1,0.5]];portConstraint=eastwest;whiteSpace=wrap;html=1;" parent="7TiSm22lBS3aOihAmO0y-146" vertex="1">
          <mxGeometry y="104" width="450" height="26" as="geometry" />
        </mxCell>
        <mxCell id="7TiSm22lBS3aOihAmO0y-151" value="+ FindContact(UserContactType, string, bool): UserContact" style="text;strokeColor=none;fillColor=none;align=left;verticalAlign=top;spacingLeft=4;spacingRight=4;overflow=hidden;rotatable=0;points=[[0,0.5],[1,0.5]];portConstraint=eastwest;whiteSpace=wrap;html=1;" parent="7TiSm22lBS3aOihAmO0y-146" vertex="1">
          <mxGeometry y="130" width="450" height="26" as="geometry" />
        </mxCell>
        <mxCell id="7TiSm22lBS3aOihAmO0y-152" value="+ GetAllForRoleAsync(UserRole, bool): UserContact[]" style="text;strokeColor=none;fillColor=none;align=left;verticalAlign=top;spacingLeft=4;spacingRight=4;overflow=hidden;rotatable=0;points=[[0,0.5],[1,0.5]];portConstraint=eastwest;whiteSpace=wrap;html=1;" parent="7TiSm22lBS3aOihAmO0y-146" vertex="1">
          <mxGeometry y="156" width="450" height="26" as="geometry" />
        </mxCell>
        <mxCell id="7TiSm22lBS3aOihAmO0y-153" value="+ GetByUserIdAndContactTypeAsync(Guid, UserContactType, bool): UserContact" style="text;strokeColor=none;fillColor=none;align=left;verticalAlign=top;spacingLeft=4;spacingRight=4;overflow=hidden;rotatable=0;points=[[0,0.5],[1,0.5]];portConstraint=eastwest;whiteSpace=wrap;html=1;" parent="7TiSm22lBS3aOihAmO0y-146" vertex="1">
          <mxGeometry y="182" width="450" height="26" as="geometry" />
        </mxCell>
        <mxCell id="7TiSm22lBS3aOihAmO0y-154" value="«interface»&lt;br&gt;&lt;b&gt;IUserContactsRepository&lt;/b&gt;" style="html=1;whiteSpace=wrap;" parent="1" vertex="1">
          <mxGeometry x="1840.75" y="2450" width="220" height="50" as="geometry" />
        </mxCell>
        <mxCell id="7TiSm22lBS3aOihAmO0y-155" value="Use" style="endArrow=open;endSize=12;dashed=1;html=1;rounded=0;entryX=-0.006;entryY=0.067;entryDx=0;entryDy=0;entryPerimeter=0;exitX=1;exitY=0.5;exitDx=0;exitDy=0;" parent="1" edge="1">
          <mxGeometry width="160" relative="1" as="geometry">
            <mxPoint x="1617.75" y="2657" as="sourcePoint" />
            <mxPoint x="1656.75" y="2580" as="targetPoint" />
          </mxGeometry>
        </mxCell>
        <mxCell id="7TiSm22lBS3aOihAmO0y-157" value="IUnitOfWork" style="swimlane;fontStyle=0;childLayout=stackLayout;horizontal=1;startSize=26;fillColor=none;horizontalStack=0;resizeParent=1;resizeParentMax=0;resizeLast=0;collapsible=1;marginBottom=0;whiteSpace=wrap;html=1;" parent="1" vertex="1">
          <mxGeometry x="1394.75" y="2730" width="326" height="130" as="geometry" />
        </mxCell>
        <mxCell id="7TiSm22lBS3aOihAmO0y-158" value="+ GetUsersRepository() : IUsersRepository;" style="text;strokeColor=none;fillColor=none;align=left;verticalAlign=top;spacingLeft=4;spacingRight=4;overflow=hidden;rotatable=0;points=[[0,0.5],[1,0.5]];portConstraint=eastwest;whiteSpace=wrap;html=1;" parent="7TiSm22lBS3aOihAmO0y-157" vertex="1">
          <mxGeometry y="26" width="326" height="26" as="geometry" />
        </mxCell>
        <mxCell id="7TiSm22lBS3aOihAmO0y-159" value="+ GetApiKeyRepository() : IApiKeyRepository;" style="text;strokeColor=none;fillColor=none;align=left;verticalAlign=top;spacingLeft=4;spacingRight=4;overflow=hidden;rotatable=0;points=[[0,0.5],[1,0.5]];portConstraint=eastwest;whiteSpace=wrap;html=1;" parent="7TiSm22lBS3aOihAmO0y-157" vertex="1">
          <mxGeometry y="52" width="326" height="26" as="geometry" />
        </mxCell>
        <mxCell id="7TiSm22lBS3aOihAmO0y-160" value="+ GetUserContactsRepository(): IUserContactsRepository" style="text;strokeColor=none;fillColor=none;align=left;verticalAlign=top;spacingLeft=4;spacingRight=4;overflow=hidden;rotatable=0;points=[[0,0.5],[1,0.5]];portConstraint=eastwest;whiteSpace=wrap;html=1;" parent="7TiSm22lBS3aOihAmO0y-157" vertex="1">
          <mxGeometry y="78" width="326" height="26" as="geometry" />
        </mxCell>
        <mxCell id="7TiSm22lBS3aOihAmO0y-161" value="+ SaveChangesAsync(): Task" style="text;strokeColor=none;fillColor=none;align=left;verticalAlign=top;spacingLeft=4;spacingRight=4;overflow=hidden;rotatable=0;points=[[0,0.5],[1,0.5]];portConstraint=eastwest;whiteSpace=wrap;html=1;" parent="7TiSm22lBS3aOihAmO0y-157" vertex="1">
          <mxGeometry y="104" width="326" height="26" as="geometry" />
        </mxCell>
        <mxCell id="7TiSm22lBS3aOihAmO0y-162" value="«interface»&lt;br&gt;&lt;b&gt;IUnitOfWork&lt;/b&gt;" style="html=1;whiteSpace=wrap;" parent="1" vertex="1">
          <mxGeometry x="960.75" y="2770" width="159" height="50" as="geometry" />
        </mxCell>
        <mxCell id="7TiSm22lBS3aOihAmO0y-163" value="" style="endArrow=block;dashed=1;endFill=0;endSize=12;html=1;rounded=0;exitX=0;exitY=0.5;exitDx=0;exitDy=0;" parent="1" source="7TiSm22lBS3aOihAmO0y-159" target="7TiSm22lBS3aOihAmO0y-162" edge="1">
          <mxGeometry width="160" relative="1" as="geometry">
            <mxPoint x="1147.75" y="2860" as="sourcePoint" />
            <mxPoint x="1307.75" y="2860" as="targetPoint" />
          </mxGeometry>
        </mxCell>
        <mxCell id="7TiSm22lBS3aOihAmO0y-164" value="Use" style="endArrow=open;endSize=12;dashed=1;html=1;rounded=0;entryX=-0.006;entryY=0.067;entryDx=0;entryDy=0;entryPerimeter=0;exitX=1;exitY=0.5;exitDx=0;exitDy=0;" parent="1" edge="1">
          <mxGeometry width="160" relative="1" as="geometry">
            <mxPoint x="2291.75" y="2697" as="sourcePoint" />
            <mxPoint x="2330.75" y="2620" as="targetPoint" />
          </mxGeometry>
        </mxCell>
        <mxCell id="7TiSm22lBS3aOihAmO0y-165" value="" style="endArrow=block;dashed=1;endFill=0;endSize=12;html=1;rounded=0;exitX=0.25;exitY=0;exitDx=0;exitDy=0;entryX=0.5;entryY=1;entryDx=0;entryDy=0;" parent="1" source="7TiSm22lBS3aOihAmO0y-146" target="7TiSm22lBS3aOihAmO0y-154" edge="1">
          <mxGeometry width="160" relative="1" as="geometry">
            <mxPoint x="1950.25" y="2581" as="sourcePoint" />
            <mxPoint x="1950.25" y="2530" as="targetPoint" />
          </mxGeometry>
        </mxCell>
        <mxCell id="7TiSm22lBS3aOihAmO0y-167" value="«interface»&lt;br&gt;&lt;b&gt;IPasswordHasher&lt;/b&gt;" style="html=1;whiteSpace=wrap;" parent="1" vertex="1">
          <mxGeometry x="1300" y="2030" width="200" height="50" as="geometry" />
        </mxCell>
        <mxCell id="7TiSm22lBS3aOihAmO0y-168" value="Use" style="endArrow=open;endSize=12;dashed=1;html=1;rounded=0;exitX=0.464;exitY=1.029;exitDx=0;exitDy=0;exitPerimeter=0;" parent="1" source="7TiSm22lBS3aOihAmO0y-49" target="7TiSm22lBS3aOihAmO0y-167" edge="1">
          <mxGeometry width="160" relative="1" as="geometry">
            <mxPoint x="1617.75" y="2240" as="sourcePoint" />
            <mxPoint x="1777.75" y="2240" as="targetPoint" />
          </mxGeometry>
        </mxCell>
        <mxCell id="7TiSm22lBS3aOihAmO0y-169" value="Sha256PasswordHasher" style="swimlane;fontStyle=1;align=center;verticalAlign=top;childLayout=stackLayout;horizontal=1;startSize=26;horizontalStack=0;resizeParent=1;resizeParentMax=0;resizeLast=0;collapsible=1;marginBottom=0;whiteSpace=wrap;html=1;" parent="1" vertex="1">
          <mxGeometry x="1261" y="2110" width="278" height="78" as="geometry" />
        </mxCell>
        <mxCell id="7TiSm22lBS3aOihAmO0y-170" value="+&amp;nbsp;ComputeHash(password): string" style="text;strokeColor=none;fillColor=none;align=left;verticalAlign=top;spacingLeft=4;spacingRight=4;overflow=hidden;rotatable=0;points=[[0,0.5],[1,0.5]];portConstraint=eastwest;whiteSpace=wrap;html=1;" parent="7TiSm22lBS3aOihAmO0y-169" vertex="1">
          <mxGeometry y="26" width="278" height="26" as="geometry" />
        </mxCell>
        <mxCell id="7TiSm22lBS3aOihAmO0y-172" value="+ &amp;nbsp;VerifyHash(password, hashedPassword): bool" style="text;strokeColor=none;fillColor=none;align=left;verticalAlign=top;spacingLeft=4;spacingRight=4;overflow=hidden;rotatable=0;points=[[0,0.5],[1,0.5]];portConstraint=eastwest;whiteSpace=wrap;html=1;" parent="7TiSm22lBS3aOihAmO0y-169" vertex="1">
          <mxGeometry y="52" width="278" height="26" as="geometry" />
        </mxCell>
        <mxCell id="7TiSm22lBS3aOihAmO0y-173" value="" style="endArrow=block;dashed=1;endFill=0;endSize=12;html=1;rounded=0;exitX=0.5;exitY=0;exitDx=0;exitDy=0;entryX=0.5;entryY=1;entryDx=0;entryDy=0;" parent="1" source="7TiSm22lBS3aOihAmO0y-169" target="7TiSm22lBS3aOihAmO0y-167" edge="1">
          <mxGeometry width="160" relative="1" as="geometry">
            <mxPoint x="1757.75" y="1920" as="sourcePoint" />
            <mxPoint x="1917.75" y="1920" as="targetPoint" />
          </mxGeometry>
        </mxCell>
        <mxCell id="7TiSm22lBS3aOihAmO0y-175" value="«interface»&lt;br&gt;&lt;b&gt;IPasswordGenerator&lt;/b&gt;" style="html=1;whiteSpace=wrap;" parent="1" vertex="1">
          <mxGeometry x="1461.25" y="2210" width="180" height="50" as="geometry" />
        </mxCell>
        <mxCell id="7TiSm22lBS3aOihAmO0y-176" value="DefaultPasswordGenerator" style="swimlane;fontStyle=1;align=center;verticalAlign=top;childLayout=stackLayout;horizontal=1;startSize=26;horizontalStack=0;resizeParent=1;resizeParentMax=0;resizeLast=0;collapsible=1;marginBottom=0;whiteSpace=wrap;html=1;" parent="1" vertex="1">
          <mxGeometry x="1444.75" y="2340" width="213" height="52" as="geometry" />
        </mxCell>
        <mxCell id="7TiSm22lBS3aOihAmO0y-179" value="+ GeneratePassword(string): string" style="text;strokeColor=none;fillColor=none;align=left;verticalAlign=top;spacingLeft=4;spacingRight=4;overflow=hidden;rotatable=0;points=[[0,0.5],[1,0.5]];portConstraint=eastwest;whiteSpace=wrap;html=1;" parent="7TiSm22lBS3aOihAmO0y-176" vertex="1">
          <mxGeometry y="26" width="213" height="26" as="geometry" />
        </mxCell>
        <mxCell id="7TiSm22lBS3aOihAmO0y-180" value="Use" style="endArrow=open;endSize=12;dashed=1;html=1;rounded=0;exitX=1.017;exitY=1.231;exitDx=0;exitDy=0;entryX=0;entryY=0.5;entryDx=0;entryDy=0;exitPerimeter=0;" parent="1" source="7TiSm22lBS3aOihAmO0y-13" target="7TiSm22lBS3aOihAmO0y-175" edge="1">
          <mxGeometry width="160" relative="1" as="geometry">
            <mxPoint x="1377.75" y="2350" as="sourcePoint" />
            <mxPoint x="1537.75" y="2350" as="targetPoint" />
          </mxGeometry>
        </mxCell>
        <mxCell id="7TiSm22lBS3aOihAmO0y-181" value="" style="endArrow=block;dashed=1;endFill=0;endSize=12;html=1;rounded=0;entryX=0.5;entryY=1;entryDx=0;entryDy=0;exitX=0.5;exitY=0;exitDx=0;exitDy=0;" parent="1" source="7TiSm22lBS3aOihAmO0y-176" target="7TiSm22lBS3aOihAmO0y-175" edge="1">
          <mxGeometry width="160" relative="1" as="geometry">
            <mxPoint x="1377.75" y="2350" as="sourcePoint" />
            <mxPoint x="1537.75" y="2350" as="targetPoint" />
          </mxGeometry>
        </mxCell>
        <mxCell id="7TiSm22lBS3aOihAmO0y-182" value="«interface»&lt;br&gt;&lt;b&gt;IApiKeyService&lt;/b&gt;" style="html=1;whiteSpace=wrap;" parent="1" vertex="1">
          <mxGeometry x="1867.75" y="1860" width="163" height="50" as="geometry" />
        </mxCell>
        <mxCell id="7TiSm22lBS3aOihAmO0y-183" value="&lt;b&gt;ApiKeyService&lt;/b&gt;" style="swimlane;fontStyle=0;childLayout=stackLayout;horizontal=1;startSize=26;fillColor=none;horizontalStack=0;resizeParent=1;resizeParentMax=0;resizeLast=0;collapsible=1;marginBottom=0;whiteSpace=wrap;html=1;" parent="1" vertex="1">
          <mxGeometry x="1837.75" y="2020" width="250" height="130" as="geometry" />
        </mxCell>
        <mxCell id="7TiSm22lBS3aOihAmO0y-184" value="+ CreateApiKeyAsync(DateTime): ApiKeyDto" style="text;strokeColor=none;fillColor=none;align=left;verticalAlign=top;spacingLeft=4;spacingRight=4;overflow=hidden;rotatable=0;points=[[0,0.5],[1,0.5]];portConstraint=eastwest;whiteSpace=wrap;html=1;" parent="7TiSm22lBS3aOihAmO0y-183" vertex="1">
          <mxGeometry y="26" width="250" height="26" as="geometry" />
        </mxCell>
        <mxCell id="7TiSm22lBS3aOihAmO0y-185" value="+ DeleteAsync(Guid): Task" style="text;strokeColor=none;fillColor=none;align=left;verticalAlign=top;spacingLeft=4;spacingRight=4;overflow=hidden;rotatable=0;points=[[0,0.5],[1,0.5]];portConstraint=eastwest;whiteSpace=wrap;html=1;" parent="7TiSm22lBS3aOihAmO0y-183" vertex="1">
          <mxGeometry y="52" width="250" height="26" as="geometry" />
        </mxCell>
        <mxCell id="7TiSm22lBS3aOihAmO0y-186" value="+ GetKeysAsync: ApiKeyDto[]" style="text;strokeColor=none;fillColor=none;align=left;verticalAlign=top;spacingLeft=4;spacingRight=4;overflow=hidden;rotatable=0;points=[[0,0.5],[1,0.5]];portConstraint=eastwest;whiteSpace=wrap;html=1;" parent="7TiSm22lBS3aOihAmO0y-183" vertex="1">
          <mxGeometry y="78" width="250" height="26" as="geometry" />
        </mxCell>
        <mxCell id="7TiSm22lBS3aOihAmO0y-187" value="+ RenewApiKeyAsync(string): string" style="text;strokeColor=none;fillColor=none;align=left;verticalAlign=top;spacingLeft=4;spacingRight=4;overflow=hidden;rotatable=0;points=[[0,0.5],[1,0.5]];portConstraint=eastwest;whiteSpace=wrap;html=1;" parent="7TiSm22lBS3aOihAmO0y-183" vertex="1">
          <mxGeometry y="104" width="250" height="26" as="geometry" />
        </mxCell>
        <mxCell id="7TiSm22lBS3aOihAmO0y-188" value="«interface»&lt;br&gt;&lt;b&gt;IUnitOfWork&lt;/b&gt;" style="html=1;whiteSpace=wrap;" parent="1" vertex="1">
          <mxGeometry x="1617.75" y="1860" width="200" height="50" as="geometry" />
        </mxCell>
        <mxCell id="7TiSm22lBS3aOihAmO0y-189" value="«interface»&lt;br&gt;&lt;b&gt;ITokenHandler&lt;br&gt;&lt;/b&gt;" style="html=1;whiteSpace=wrap;" parent="1" vertex="1">
          <mxGeometry x="1569.75" y="1960" width="163" height="50" as="geometry" />
        </mxCell>
        <mxCell id="7TiSm22lBS3aOihAmO0y-190" value="Use" style="endArrow=open;endSize=12;dashed=1;html=1;rounded=0;exitX=0.5;exitY=0;exitDx=0;exitDy=0;" parent="1" source="7TiSm22lBS3aOihAmO0y-183" target="7TiSm22lBS3aOihAmO0y-188" edge="1">
          <mxGeometry width="160" relative="1" as="geometry">
            <mxPoint x="1607.75" y="2170" as="sourcePoint" />
            <mxPoint x="1767.75" y="2170" as="targetPoint" />
          </mxGeometry>
        </mxCell>
        <mxCell id="7TiSm22lBS3aOihAmO0y-191" value="" style="endArrow=block;dashed=1;endFill=0;endSize=12;html=1;rounded=0;entryX=0.537;entryY=0.97;entryDx=0;entryDy=0;entryPerimeter=0;exitX=0.5;exitY=0;exitDx=0;exitDy=0;" parent="1" source="7TiSm22lBS3aOihAmO0y-183" target="7TiSm22lBS3aOihAmO0y-182" edge="1">
          <mxGeometry width="160" relative="1" as="geometry">
            <mxPoint x="1607.75" y="2170" as="sourcePoint" />
            <mxPoint x="1767.75" y="2170" as="targetPoint" />
          </mxGeometry>
        </mxCell>
        <mxCell id="7TiSm22lBS3aOihAmO0y-192" value="«interface»&lt;br&gt;&lt;b&gt;ICurrentUserAccessor&lt;/b&gt;" style="html=1;whiteSpace=wrap;" parent="1" vertex="1">
          <mxGeometry x="2067.75" y="1860" width="205.5" height="50" as="geometry" />
        </mxCell>
        <mxCell id="7TiSm22lBS3aOihAmO0y-193" value="Use" style="endArrow=open;endSize=12;dashed=1;html=1;rounded=0;entryX=1;entryY=0.5;entryDx=0;entryDy=0;exitX=0.5;exitY=0;exitDx=0;exitDy=0;" parent="1" source="7TiSm22lBS3aOihAmO0y-183" target="7TiSm22lBS3aOihAmO0y-189" edge="1">
          <mxGeometry width="160" relative="1" as="geometry">
            <mxPoint x="1717.75" y="2030" as="sourcePoint" />
            <mxPoint x="1877.75" y="2030" as="targetPoint" />
          </mxGeometry>
        </mxCell>
        <mxCell id="7TiSm22lBS3aOihAmO0y-194" value="Use" style="endArrow=open;endSize=12;dashed=1;html=1;rounded=0;entryX=0.5;entryY=1;entryDx=0;entryDy=0;exitX=0.5;exitY=0;exitDx=0;exitDy=0;" parent="1" source="7TiSm22lBS3aOihAmO0y-183" target="7TiSm22lBS3aOihAmO0y-192" edge="1">
          <mxGeometry width="160" relative="1" as="geometry">
            <mxPoint x="1887.75" y="2150" as="sourcePoint" />
            <mxPoint x="2047.75" y="2150" as="targetPoint" />
          </mxGeometry>
        </mxCell>
        <mxCell id="7TiSm22lBS3aOihAmO0y-195" value="ApiKeyDto" style="swimlane;fontStyle=1;align=center;verticalAlign=top;childLayout=stackLayout;horizontal=1;startSize=26;horizontalStack=0;resizeParent=1;resizeParentMax=0;resizeLast=0;collapsible=1;marginBottom=0;whiteSpace=wrap;html=1;" parent="1" vertex="1">
          <mxGeometry x="1569.75" y="2053" width="160" height="104" as="geometry" />
        </mxCell>
        <mxCell id="7TiSm22lBS3aOihAmO0y-196" value="+ Id: Guid" style="text;strokeColor=none;fillColor=none;align=left;verticalAlign=top;spacingLeft=4;spacingRight=4;overflow=hidden;rotatable=0;points=[[0,0.5],[1,0.5]];portConstraint=eastwest;whiteSpace=wrap;html=1;" parent="7TiSm22lBS3aOihAmO0y-195" vertex="1">
          <mxGeometry y="26" width="160" height="26" as="geometry" />
        </mxCell>
        <mxCell id="7TiSm22lBS3aOihAmO0y-199" value="+ Key: string" style="text;strokeColor=none;fillColor=none;align=left;verticalAlign=top;spacingLeft=4;spacingRight=4;overflow=hidden;rotatable=0;points=[[0,0.5],[1,0.5]];portConstraint=eastwest;whiteSpace=wrap;html=1;" parent="7TiSm22lBS3aOihAmO0y-195" vertex="1">
          <mxGeometry y="52" width="160" height="26" as="geometry" />
        </mxCell>
        <mxCell id="7TiSm22lBS3aOihAmO0y-200" value="+ ExpiryDate: DateTime" style="text;strokeColor=none;fillColor=none;align=left;verticalAlign=top;spacingLeft=4;spacingRight=4;overflow=hidden;rotatable=0;points=[[0,0.5],[1,0.5]];portConstraint=eastwest;whiteSpace=wrap;html=1;" parent="7TiSm22lBS3aOihAmO0y-195" vertex="1">
          <mxGeometry y="78" width="160" height="26" as="geometry" />
        </mxCell>
        <mxCell id="7TiSm22lBS3aOihAmO0y-201" value="Use" style="endArrow=open;endSize=12;dashed=1;html=1;rounded=0;entryX=1;entryY=0.129;entryDx=0;entryDy=0;entryPerimeter=0;exitX=0;exitY=0.5;exitDx=0;exitDy=0;" parent="1" source="7TiSm22lBS3aOihAmO0y-184" target="7TiSm22lBS3aOihAmO0y-195" edge="1">
          <mxGeometry width="160" relative="1" as="geometry">
            <mxPoint x="1957.75" y="1980" as="sourcePoint" />
            <mxPoint x="2117.75" y="1980" as="targetPoint" />
          </mxGeometry>
        </mxCell>
        <mxCell id="7TiSm22lBS3aOihAmO0y-202" value="«interface»&lt;br&gt;&lt;b&gt;IUserPasswordChanger&lt;/b&gt;" style="html=1;whiteSpace=wrap;" parent="1" vertex="1">
          <mxGeometry x="1985.75" y="2220" width="220" height="50" as="geometry" />
        </mxCell>
        <mxCell id="7TiSm22lBS3aOihAmO0y-203" value="UserPasswordChanger" style="swimlane;fontStyle=1;align=center;verticalAlign=top;childLayout=stackLayout;horizontal=1;startSize=26;horizontalStack=0;resizeParent=1;resizeParentMax=0;resizeLast=0;collapsible=1;marginBottom=0;whiteSpace=wrap;html=1;" parent="1" vertex="1">
          <mxGeometry x="1937.75" y="2332" width="268" height="86" as="geometry" />
        </mxCell>
        <mxCell id="7TiSm22lBS3aOihAmO0y-204" value="+ ChangeAsync(User, string, string): Task" style="text;strokeColor=none;fillColor=none;align=left;verticalAlign=top;spacingLeft=4;spacingRight=4;overflow=hidden;rotatable=0;points=[[0,0.5],[1,0.5]];portConstraint=eastwest;whiteSpace=wrap;html=1;" parent="7TiSm22lBS3aOihAmO0y-203" vertex="1">
          <mxGeometry y="26" width="268" height="26" as="geometry" />
        </mxCell>
        <mxCell id="7TiSm22lBS3aOihAmO0y-205" value="" style="line;strokeWidth=1;fillColor=none;align=left;verticalAlign=middle;spacingTop=-1;spacingLeft=3;spacingRight=3;rotatable=0;labelPosition=right;points=[];portConstraint=eastwest;strokeColor=inherit;" parent="7TiSm22lBS3aOihAmO0y-203" vertex="1">
          <mxGeometry y="52" width="268" height="8" as="geometry" />
        </mxCell>
        <mxCell id="7TiSm22lBS3aOihAmO0y-206" value="+ ResetAsync(Guid): Task&amp;lt;string&amp;gt;" style="text;strokeColor=none;fillColor=none;align=left;verticalAlign=top;spacingLeft=4;spacingRight=4;overflow=hidden;rotatable=0;points=[[0,0.5],[1,0.5]];portConstraint=eastwest;whiteSpace=wrap;html=1;" parent="7TiSm22lBS3aOihAmO0y-203" vertex="1">
          <mxGeometry y="60" width="268" height="26" as="geometry" />
        </mxCell>
        <mxCell id="7TiSm22lBS3aOihAmO0y-208" value="" style="endArrow=block;dashed=1;endFill=0;endSize=12;html=1;rounded=0;entryX=0.5;entryY=1;entryDx=0;entryDy=0;exitX=0.5;exitY=0;exitDx=0;exitDy=0;" parent="1" source="7TiSm22lBS3aOihAmO0y-203" target="7TiSm22lBS3aOihAmO0y-202" edge="1">
          <mxGeometry width="160" relative="1" as="geometry">
            <mxPoint x="1727.75" y="2080" as="sourcePoint" />
            <mxPoint x="1887.75" y="2080" as="targetPoint" />
          </mxGeometry>
        </mxCell>
        <mxCell id="7TiSm22lBS3aOihAmO0y-209" value="«interface»&lt;br&gt;&lt;b&gt;IUserContactsService&lt;/b&gt;" style="html=1;whiteSpace=wrap;" parent="1" vertex="1">
          <mxGeometry x="2217.75" y="2200" width="190" height="50" as="geometry" />
        </mxCell>
        <mxCell id="7TiSm22lBS3aOihAmO0y-210" value="UserContactsService" style="swimlane;fontStyle=1;align=center;verticalAlign=top;childLayout=stackLayout;horizontal=1;startSize=26;horizontalStack=0;resizeParent=1;resizeParentMax=0;resizeLast=0;collapsible=1;marginBottom=0;whiteSpace=wrap;html=1;" parent="1" vertex="1">
          <mxGeometry x="2273.25" y="2323" width="320" height="86" as="geometry" />
        </mxCell>
        <mxCell id="7TiSm22lBS3aOihAmO0y-211" value="+ GetAllForRoleAsync: UserContactDto[]" style="text;strokeColor=none;fillColor=none;align=left;verticalAlign=top;spacingLeft=4;spacingRight=4;overflow=hidden;rotatable=0;points=[[0,0.5],[1,0.5]];portConstraint=eastwest;whiteSpace=wrap;html=1;" parent="7TiSm22lBS3aOihAmO0y-210" vertex="1">
          <mxGeometry y="26" width="320" height="26" as="geometry" />
        </mxCell>
        <mxCell id="7TiSm22lBS3aOihAmO0y-212" value="" style="line;strokeWidth=1;fillColor=none;align=left;verticalAlign=middle;spacingTop=-1;spacingLeft=3;spacingRight=3;rotatable=0;labelPosition=right;points=[];portConstraint=eastwest;strokeColor=inherit;" parent="7TiSm22lBS3aOihAmO0y-210" vertex="1">
          <mxGeometry y="52" width="320" height="8" as="geometry" />
        </mxCell>
        <mxCell id="7TiSm22lBS3aOihAmO0y-213" value="+ FindContact(UserContactType, string): UserContactDto" style="text;strokeColor=none;fillColor=none;align=left;verticalAlign=top;spacingLeft=4;spacingRight=4;overflow=hidden;rotatable=0;points=[[0,0.5],[1,0.5]];portConstraint=eastwest;whiteSpace=wrap;html=1;" parent="7TiSm22lBS3aOihAmO0y-210" vertex="1">
          <mxGeometry y="60" width="320" height="26" as="geometry" />
        </mxCell>
        <mxCell id="7TiSm22lBS3aOihAmO0y-214" value="" style="endArrow=block;dashed=1;endFill=0;endSize=12;html=1;rounded=0;exitX=0.5;exitY=0;exitDx=0;exitDy=0;" parent="1" source="7TiSm22lBS3aOihAmO0y-210" target="7TiSm22lBS3aOihAmO0y-209" edge="1">
          <mxGeometry width="160" relative="1" as="geometry">
            <mxPoint x="2237.75" y="2160" as="sourcePoint" />
            <mxPoint x="2397.75" y="2160" as="targetPoint" />
          </mxGeometry>
        </mxCell>
        <mxCell id="7TiSm22lBS3aOihAmO0y-215" value="UserContactDto" style="swimlane;fontStyle=1;align=center;verticalAlign=top;childLayout=stackLayout;horizontal=1;startSize=26;horizontalStack=0;resizeParent=1;resizeParentMax=0;resizeLast=0;collapsible=1;marginBottom=0;whiteSpace=wrap;html=1;" parent="1" vertex="1">
          <mxGeometry x="2437.75" y="2084" width="204.5" height="130" as="geometry" />
        </mxCell>
        <mxCell id="7TiSm22lBS3aOihAmO0y-216" value="+ Id: Guid" style="text;strokeColor=none;fillColor=none;align=left;verticalAlign=top;spacingLeft=4;spacingRight=4;overflow=hidden;rotatable=0;points=[[0,0.5],[1,0.5]];portConstraint=eastwest;whiteSpace=wrap;html=1;" parent="7TiSm22lBS3aOihAmO0y-215" vertex="1">
          <mxGeometry y="26" width="204.5" height="26" as="geometry" />
        </mxCell>
        <mxCell id="7TiSm22lBS3aOihAmO0y-221" value="+ UserId: Guid" style="text;strokeColor=none;fillColor=none;align=left;verticalAlign=top;spacingLeft=4;spacingRight=4;overflow=hidden;rotatable=0;points=[[0,0.5],[1,0.5]];portConstraint=eastwest;whiteSpace=wrap;html=1;" parent="7TiSm22lBS3aOihAmO0y-215" vertex="1">
          <mxGeometry y="52" width="204.5" height="26" as="geometry" />
        </mxCell>
        <mxCell id="7TiSm22lBS3aOihAmO0y-222" value="+ ContactType: UserContactType" style="text;strokeColor=none;fillColor=none;align=left;verticalAlign=top;spacingLeft=4;spacingRight=4;overflow=hidden;rotatable=0;points=[[0,0.5],[1,0.5]];portConstraint=eastwest;whiteSpace=wrap;html=1;" parent="7TiSm22lBS3aOihAmO0y-215" vertex="1">
          <mxGeometry y="78" width="204.5" height="26" as="geometry" />
        </mxCell>
        <mxCell id="7TiSm22lBS3aOihAmO0y-223" value="+ Contact: string" style="text;strokeColor=none;fillColor=none;align=left;verticalAlign=top;spacingLeft=4;spacingRight=4;overflow=hidden;rotatable=0;points=[[0,0.5],[1,0.5]];portConstraint=eastwest;whiteSpace=wrap;html=1;" parent="7TiSm22lBS3aOihAmO0y-215" vertex="1">
          <mxGeometry y="104" width="204.5" height="26" as="geometry" />
        </mxCell>
        <mxCell id="7TiSm22lBS3aOihAmO0y-224" value="Use" style="endArrow=open;endSize=12;dashed=1;html=1;rounded=0;exitX=0.5;exitY=0;exitDx=0;exitDy=0;" parent="1" source="7TiSm22lBS3aOihAmO0y-210" target="7TiSm22lBS3aOihAmO0y-223" edge="1">
          <mxGeometry width="160" relative="1" as="geometry">
            <mxPoint x="2267.75" y="2170" as="sourcePoint" />
            <mxPoint x="2427.75" y="2170" as="targetPoint" />
          </mxGeometry>
        </mxCell>
        <mxCell id="7TiSm22lBS3aOihAmO0y-225" value="«interface»&lt;br&gt;&lt;b&gt;IUnitOfWork&lt;/b&gt;" style="html=1;whiteSpace=wrap;" parent="1" vertex="1">
          <mxGeometry x="1694.75" y="2188" width="173" height="50" as="geometry" />
        </mxCell>
        <mxCell id="7TiSm22lBS3aOihAmO0y-226" value="«interface»&lt;br&gt;&lt;b&gt;IPasswordHasher&lt;/b&gt;" style="html=1;whiteSpace=wrap;" parent="1" vertex="1">
          <mxGeometry x="1689.75" y="2250" width="173.5" height="50" as="geometry" />
        </mxCell>
        <mxCell id="7TiSm22lBS3aOihAmO0y-227" value="«interface»&lt;br&gt;&lt;b&gt;IPasswordGenerator&lt;/b&gt;" style="html=1;whiteSpace=wrap;" parent="1" vertex="1">
          <mxGeometry x="1691.5" y="2310" width="170" height="50" as="geometry" />
        </mxCell>
        <mxCell id="7TiSm22lBS3aOihAmO0y-228" value="Use" style="endArrow=open;endSize=12;dashed=1;html=1;rounded=0;entryX=1;entryY=0.5;entryDx=0;entryDy=0;exitX=0.5;exitY=0;exitDx=0;exitDy=0;" parent="1" source="7TiSm22lBS3aOihAmO0y-203" target="7TiSm22lBS3aOihAmO0y-225" edge="1">
          <mxGeometry width="160" relative="1" as="geometry">
            <mxPoint x="1947.75" y="2330" as="sourcePoint" />
            <mxPoint x="2117.75" y="2140" as="targetPoint" />
          </mxGeometry>
        </mxCell>
        <mxCell id="7TiSm22lBS3aOihAmO0y-229" value="Use" style="endArrow=open;endSize=12;dashed=1;html=1;rounded=0;exitX=0.5;exitY=0;exitDx=0;exitDy=0;entryX=1;entryY=0.5;entryDx=0;entryDy=0;" parent="1" source="7TiSm22lBS3aOihAmO0y-203" target="7TiSm22lBS3aOihAmO0y-226" edge="1">
          <mxGeometry width="160" relative="1" as="geometry">
            <mxPoint x="1957.75" y="2140" as="sourcePoint" />
            <mxPoint x="2117.75" y="2140" as="targetPoint" />
          </mxGeometry>
        </mxCell>
        <mxCell id="7TiSm22lBS3aOihAmO0y-230" value="Use" style="endArrow=open;endSize=12;dashed=1;html=1;rounded=0;entryX=1;entryY=0.5;entryDx=0;entryDy=0;exitX=-0.007;exitY=0.182;exitDx=0;exitDy=0;exitPerimeter=0;" parent="1" source="7TiSm22lBS3aOihAmO0y-203" target="7TiSm22lBS3aOihAmO0y-227" edge="1">
          <mxGeometry width="160" relative="1" as="geometry">
            <mxPoint x="1937.75" y="2360" as="sourcePoint" />
            <mxPoint x="2117.75" y="2140" as="targetPoint" />
          </mxGeometry>
        </mxCell>
        <mxCell id="7TiSm22lBS3aOihAmO0y-231" value="CurrentUserAccessor" style="swimlane;fontStyle=1;align=center;verticalAlign=top;childLayout=stackLayout;horizontal=1;startSize=26;horizontalStack=0;resizeParent=1;resizeParentMax=0;resizeLast=0;collapsible=1;marginBottom=0;whiteSpace=wrap;html=1;" parent="1" vertex="1">
          <mxGeometry x="2159.75" y="2084" width="220" height="52" as="geometry" />
        </mxCell>
        <mxCell id="7TiSm22lBS3aOihAmO0y-232" value="+ GetCurrentUserAsync: User" style="text;strokeColor=none;fillColor=none;align=left;verticalAlign=top;spacingLeft=4;spacingRight=4;overflow=hidden;rotatable=0;points=[[0,0.5],[1,0.5]];portConstraint=eastwest;whiteSpace=wrap;html=1;" parent="7TiSm22lBS3aOihAmO0y-231" vertex="1">
          <mxGeometry y="26" width="220" height="26" as="geometry" />
        </mxCell>
        <mxCell id="7TiSm22lBS3aOihAmO0y-235" value="" style="endArrow=block;dashed=1;endFill=0;endSize=12;html=1;rounded=0;entryX=0.5;entryY=1;entryDx=0;entryDy=0;exitX=0.5;exitY=0;exitDx=0;exitDy=0;" parent="1" source="7TiSm22lBS3aOihAmO0y-231" target="7TiSm22lBS3aOihAmO0y-192" edge="1">
          <mxGeometry width="160" relative="1" as="geometry">
            <mxPoint x="1827.75" y="2000" as="sourcePoint" />
            <mxPoint x="1987.75" y="2000" as="targetPoint" />
          </mxGeometry>
        </mxCell>
        <mxCell id="7TiSm22lBS3aOihAmO0y-236" value="«interface»&lt;br&gt;&lt;b&gt;IHttpContextAccessor&lt;/b&gt;" style="html=1;whiteSpace=wrap;" parent="1" vertex="1">
          <mxGeometry x="2337.75" y="1860" width="180" height="50" as="geometry" />
        </mxCell>
        <mxCell id="7TiSm22lBS3aOihAmO0y-237" value="Use" style="endArrow=open;endSize=12;dashed=1;html=1;rounded=0;entryX=0.5;entryY=1;entryDx=0;entryDy=0;exitX=0.5;exitY=0;exitDx=0;exitDy=0;" parent="1" source="7TiSm22lBS3aOihAmO0y-231" target="7TiSm22lBS3aOihAmO0y-236" edge="1">
          <mxGeometry width="160" relative="1" as="geometry">
            <mxPoint x="1827.75" y="2000" as="sourcePoint" />
            <mxPoint x="1987.75" y="2000" as="targetPoint" />
          </mxGeometry>
        </mxCell>
        <mxCell id="7TiSm22lBS3aOihAmO0y-238" value="Use" style="endArrow=open;endSize=12;dashed=1;html=1;rounded=0;exitX=0.375;exitY=1.09;exitDx=0;exitDy=0;exitPerimeter=0;entryX=1;entryY=0.25;entryDx=0;entryDy=0;" parent="1" source="7TiSm22lBS3aOihAmO0y-232" target="7TiSm22lBS3aOihAmO0y-225" edge="1">
          <mxGeometry width="160" relative="1" as="geometry">
            <mxPoint x="1827.75" y="2000" as="sourcePoint" />
            <mxPoint x="1867.75" y="2220" as="targetPoint" />
          </mxGeometry>
        </mxCell>
        <mxCell id="7TiSm22lBS3aOihAmO0y-240" value="UserContactsController" style="swimlane;fontStyle=1;align=center;verticalAlign=top;childLayout=stackLayout;horizontal=1;startSize=26;horizontalStack=0;resizeParent=1;resizeParentMax=0;resizeLast=0;collapsible=1;marginBottom=0;whiteSpace=wrap;html=1;" parent="1" vertex="1">
          <mxGeometry x="1894.75" y="1226" width="210" height="78" as="geometry" />
        </mxCell>
        <mxCell id="7TiSm22lBS3aOihAmO0y-241" value="+ GetAllForRole: IActionResult" style="text;strokeColor=none;fillColor=none;align=left;verticalAlign=top;spacingLeft=4;spacingRight=4;overflow=hidden;rotatable=0;points=[[0,0.5],[1,0.5]];portConstraint=eastwest;whiteSpace=wrap;html=1;" parent="7TiSm22lBS3aOihAmO0y-240" vertex="1">
          <mxGeometry y="26" width="210" height="26" as="geometry" />
        </mxCell>
        <mxCell id="7TiSm22lBS3aOihAmO0y-243" value="+ GetContact(): IActionResult" style="text;strokeColor=none;fillColor=none;align=left;verticalAlign=top;spacingLeft=4;spacingRight=4;overflow=hidden;rotatable=0;points=[[0,0.5],[1,0.5]];portConstraint=eastwest;whiteSpace=wrap;html=1;" parent="7TiSm22lBS3aOihAmO0y-240" vertex="1">
          <mxGeometry y="52" width="210" height="26" as="geometry" />
        </mxCell>
        <mxCell id="7TiSm22lBS3aOihAmO0y-244" value="«interface»&lt;br&gt;&lt;b&gt;IUserContactsService&lt;/b&gt;" style="html=1;whiteSpace=wrap;" parent="1" vertex="1">
          <mxGeometry x="2179.75" y="1238" width="200" height="50" as="geometry" />
        </mxCell>
        <mxCell id="7TiSm22lBS3aOihAmO0y-245" value="" style="endArrow=block;dashed=1;endFill=0;endSize=12;html=1;rounded=0;entryX=0;entryY=0.5;entryDx=0;entryDy=0;exitX=1;exitY=0.5;exitDx=0;exitDy=0;" parent="1" source="7TiSm22lBS3aOihAmO0y-241" target="7TiSm22lBS3aOihAmO0y-244" edge="1">
          <mxGeometry width="160" relative="1" as="geometry">
            <mxPoint x="1827.75" y="1530" as="sourcePoint" />
            <mxPoint x="1987.75" y="1530" as="targetPoint" />
          </mxGeometry>
        </mxCell>
        <mxCell id="7TiSm22lBS3aOihAmO0y-246" value="ApiKeysController" style="swimlane;fontStyle=1;align=center;verticalAlign=top;childLayout=stackLayout;horizontal=1;startSize=26;horizontalStack=0;resizeParent=1;resizeParentMax=0;resizeLast=0;collapsible=1;marginBottom=0;whiteSpace=wrap;html=1;" parent="1" vertex="1">
          <mxGeometry x="1261.25" y="1200" width="200" height="130" as="geometry" />
        </mxCell>
        <mxCell id="7TiSm22lBS3aOihAmO0y-247" value="+ RenewApiKey: ActionResult" style="text;strokeColor=none;fillColor=none;align=left;verticalAlign=top;spacingLeft=4;spacingRight=4;overflow=hidden;rotatable=0;points=[[0,0.5],[1,0.5]];portConstraint=eastwest;whiteSpace=wrap;html=1;" parent="7TiSm22lBS3aOihAmO0y-246" vertex="1">
          <mxGeometry y="26" width="200" height="26" as="geometry" />
        </mxCell>
        <mxCell id="7TiSm22lBS3aOihAmO0y-249" value="+ GetAllAsync(): ActionResult" style="text;strokeColor=none;fillColor=none;align=left;verticalAlign=top;spacingLeft=4;spacingRight=4;overflow=hidden;rotatable=0;points=[[0,0.5],[1,0.5]];portConstraint=eastwest;whiteSpace=wrap;html=1;" parent="7TiSm22lBS3aOihAmO0y-246" vertex="1">
          <mxGeometry y="52" width="200" height="26" as="geometry" />
        </mxCell>
        <mxCell id="7TiSm22lBS3aOihAmO0y-250" value="+ CreateAsync(): ActionResult" style="text;strokeColor=none;fillColor=none;align=left;verticalAlign=top;spacingLeft=4;spacingRight=4;overflow=hidden;rotatable=0;points=[[0,0.5],[1,0.5]];portConstraint=eastwest;whiteSpace=wrap;html=1;" parent="7TiSm22lBS3aOihAmO0y-246" vertex="1">
          <mxGeometry y="78" width="200" height="26" as="geometry" />
        </mxCell>
        <mxCell id="7TiSm22lBS3aOihAmO0y-251" value="+ Delete(): ActionResult" style="text;strokeColor=none;fillColor=none;align=left;verticalAlign=top;spacingLeft=4;spacingRight=4;overflow=hidden;rotatable=0;points=[[0,0.5],[1,0.5]];portConstraint=eastwest;whiteSpace=wrap;html=1;" parent="7TiSm22lBS3aOihAmO0y-246" vertex="1">
          <mxGeometry y="104" width="200" height="26" as="geometry" />
        </mxCell>
        <mxCell id="7TiSm22lBS3aOihAmO0y-252" value="Extends" style="endArrow=block;endSize=16;endFill=0;html=1;rounded=0;entryX=0.5;entryY=0;entryDx=0;entryDy=0;exitX=1;exitY=0.5;exitDx=0;exitDy=0;" parent="1" source="7TiSm22lBS3aOihAmO0y-249" target="7TiSm22lBS3aOihAmO0y-68" edge="1">
          <mxGeometry x="-0.1723" width="160" relative="1" as="geometry">
            <mxPoint x="1827.75" y="1530" as="sourcePoint" />
            <mxPoint x="1987.75" y="1530" as="targetPoint" />
            <Array as="points">
              <mxPoint x="1657.75" y="1265" />
            </Array>
            <mxPoint as="offset" />
          </mxGeometry>
        </mxCell>
        <mxCell id="7TiSm22lBS3aOihAmO0y-253" value="«interface»&lt;br&gt;&lt;b style=&quot;border-color: var(--border-color);&quot;&gt;IApiKeyService&lt;/b&gt;" style="html=1;whiteSpace=wrap;" parent="1" vertex="1">
          <mxGeometry x="949.75" y="1240" width="208" height="50" as="geometry" />
        </mxCell>
        <mxCell id="7TiSm22lBS3aOihAmO0y-254" value="Use" style="endArrow=open;endSize=12;dashed=1;html=1;rounded=0;exitX=0;exitY=0.5;exitDx=0;exitDy=0;" parent="1" source="7TiSm22lBS3aOihAmO0y-249" target="7TiSm22lBS3aOihAmO0y-253" edge="1">
          <mxGeometry width="160" relative="1" as="geometry">
            <mxPoint x="1457.75" y="1150" as="sourcePoint" />
            <mxPoint x="1617.75" y="1150" as="targetPoint" />
          </mxGeometry>
        </mxCell>
        <mxCell id="7TiSm22lBS3aOihAmO0y-255" value="Extends" style="endArrow=block;endSize=16;endFill=0;html=1;rounded=0;entryX=0.5;entryY=0;entryDx=0;entryDy=0;exitX=0;exitY=0.5;exitDx=0;exitDy=0;" parent="1" source="7TiSm22lBS3aOihAmO0y-241" target="7TiSm22lBS3aOihAmO0y-68" edge="1">
          <mxGeometry x="-0.3354" width="160" relative="1" as="geometry">
            <mxPoint x="1787.75" y="1450" as="sourcePoint" />
            <mxPoint x="1947.75" y="1450" as="targetPoint" />
            <Array as="points">
              <mxPoint x="1657.75" y="1265" />
            </Array>
            <mxPoint as="offset" />
          </mxGeometry>
        </mxCell>
        <mxCell id="7TiSm22lBS3aOihAmO0y-256" value="«interface»&lt;br&gt;&lt;b&gt;ITokenHandler&lt;/b&gt;" style="html=1;whiteSpace=wrap;" parent="1" vertex="1">
          <mxGeometry x="2197.75" y="1330" width="280" height="50" as="geometry" />
        </mxCell>
        <mxCell id="7TiSm22lBS3aOihAmO0y-257" value="JwtTokenHandler" style="swimlane;fontStyle=1;align=center;verticalAlign=top;childLayout=stackLayout;horizontal=1;startSize=26;horizontalStack=0;resizeParent=1;resizeParentMax=0;resizeLast=0;collapsible=1;marginBottom=0;whiteSpace=wrap;html=1;" parent="1" vertex="1">
          <mxGeometry x="2197.75" y="1416" width="280" height="104" as="geometry" />
        </mxCell>
        <mxCell id="7TiSm22lBS3aOihAmO0y-258" value="+ ExtractApiKeyData(string): ApiKeyData" style="text;strokeColor=none;fillColor=none;align=left;verticalAlign=top;spacingLeft=4;spacingRight=4;overflow=hidden;rotatable=0;points=[[0,0.5],[1,0.5]];portConstraint=eastwest;whiteSpace=wrap;html=1;" parent="7TiSm22lBS3aOihAmO0y-257" vertex="1">
          <mxGeometry y="26" width="280" height="26" as="geometry" />
        </mxCell>
        <mxCell id="7TiSm22lBS3aOihAmO0y-260" value="+ Generate(string, Guid, UserRole): string" style="text;strokeColor=none;fillColor=none;align=left;verticalAlign=top;spacingLeft=4;spacingRight=4;overflow=hidden;rotatable=0;points=[[0,0.5],[1,0.5]];portConstraint=eastwest;whiteSpace=wrap;html=1;" parent="7TiSm22lBS3aOihAmO0y-257" vertex="1">
          <mxGeometry y="52" width="280" height="26" as="geometry" />
        </mxCell>
        <mxCell id="7TiSm22lBS3aOihAmO0y-261" value="+ GenerateApiToken(Guid, Guid): string" style="text;strokeColor=none;fillColor=none;align=left;verticalAlign=top;spacingLeft=4;spacingRight=4;overflow=hidden;rotatable=0;points=[[0,0.5],[1,0.5]];portConstraint=eastwest;whiteSpace=wrap;html=1;" parent="7TiSm22lBS3aOihAmO0y-257" vertex="1">
          <mxGeometry y="78" width="280" height="26" as="geometry" />
        </mxCell>
        <mxCell id="7TiSm22lBS3aOihAmO0y-262" value="" style="endArrow=block;dashed=1;endFill=0;endSize=12;html=1;rounded=0;entryX=0.5;entryY=1;entryDx=0;entryDy=0;exitX=0.5;exitY=0;exitDx=0;exitDy=0;" parent="1" source="7TiSm22lBS3aOihAmO0y-257" target="7TiSm22lBS3aOihAmO0y-256" edge="1">
          <mxGeometry width="160" relative="1" as="geometry">
            <mxPoint x="2037.75" y="1480" as="sourcePoint" />
            <mxPoint x="2197.75" y="1480" as="targetPoint" />
          </mxGeometry>
        </mxCell>
      </root>
    </mxGraphModel>
  </diagram>
  <diagram id="uK6f0g9S9dNciJle8SxW" name="Sequence">
    <mxGraphModel dx="1434" dy="836" grid="1" gridSize="10" guides="1" tooltips="1" connect="1" arrows="1" fold="1" page="1" pageScale="1" pageWidth="850" pageHeight="1100" math="0" shadow="0">
      <root>
        <mxCell id="0" />
        <mxCell id="1" parent="0" />
        <mxCell id="5bdBH71OebbFIAX-Ul3I-1" value="" style="shape=umlLifeline;perimeter=lifelinePerimeter;whiteSpace=wrap;html=1;container=1;dropTarget=0;collapsible=0;recursiveResize=0;outlineConnect=0;portConstraint=eastwest;newEdgeStyle={&quot;curved&quot;:0,&quot;rounded&quot;:0};participant=umlActor;" parent="1" vertex="1">
          <mxGeometry x="60" y="30" width="20" height="530" as="geometry" />
        </mxCell>
        <mxCell id="5bdBH71OebbFIAX-Ul3I-2" value="" style="html=1;points=[[0,0,0,0,5],[0,1,0,0,-5],[1,0,0,0,5],[1,1,0,0,-5]];perimeter=orthogonalPerimeter;outlineConnect=0;targetShapes=umlLifeline;portConstraint=eastwest;newEdgeStyle={&quot;curved&quot;:0,&quot;rounded&quot;:0};" parent="5bdBH71OebbFIAX-Ul3I-1" vertex="1">
          <mxGeometry x="4" y="50" width="10" height="450" as="geometry" />
        </mxCell>
        <mxCell id="5bdBH71OebbFIAX-Ul3I-3" value=":WebUI" style="shape=umlLifeline;perimeter=lifelinePerimeter;whiteSpace=wrap;html=1;container=1;dropTarget=0;collapsible=0;recursiveResize=0;outlineConnect=0;portConstraint=eastwest;newEdgeStyle={&quot;curved&quot;:0,&quot;rounded&quot;:0};" parent="1" vertex="1">
          <mxGeometry x="150" y="30" width="100" height="530" as="geometry" />
        </mxCell>
        <mxCell id="5bdBH71OebbFIAX-Ul3I-4" value="" style="html=1;points=[[0,0,0,0,5],[0,1,0,0,-5],[1,0,0,0,5],[1,1,0,0,-5]];perimeter=orthogonalPerimeter;outlineConnect=0;targetShapes=umlLifeline;portConstraint=eastwest;newEdgeStyle={&quot;curved&quot;:0,&quot;rounded&quot;:0};" parent="5bdBH71OebbFIAX-Ul3I-3" vertex="1">
          <mxGeometry x="45" y="61" width="10" height="340" as="geometry" />
        </mxCell>
        <mxCell id="5bdBH71OebbFIAX-Ul3I-5" value="" style="html=1;points=[[0,0,0,0,5],[0,1,0,0,-5],[1,0,0,0,5],[1,1,0,0,-5]];perimeter=orthogonalPerimeter;outlineConnect=0;targetShapes=umlLifeline;portConstraint=eastwest;newEdgeStyle={&quot;curved&quot;:0,&quot;rounded&quot;:0};" parent="5bdBH71OebbFIAX-Ul3I-3" vertex="1">
          <mxGeometry x="51" y="350" width="10" height="20" as="geometry" />
        </mxCell>
        <mxCell id="5bdBH71OebbFIAX-Ul3I-6" value="GenAuthCookie()" style="html=1;align=left;spacingLeft=2;endArrow=block;rounded=0;edgeStyle=orthogonalEdgeStyle;curved=0;rounded=0;" parent="5bdBH71OebbFIAX-Ul3I-3" target="5bdBH71OebbFIAX-Ul3I-5" edge="1">
          <mxGeometry relative="1" as="geometry">
            <mxPoint x="56" y="330" as="sourcePoint" />
            <Array as="points">
              <mxPoint x="86" y="360" />
            </Array>
          </mxGeometry>
        </mxCell>
        <mxCell id="5bdBH71OebbFIAX-Ul3I-7" value=":UserAuthAPI" style="shape=umlLifeline;perimeter=lifelinePerimeter;whiteSpace=wrap;html=1;container=1;dropTarget=0;collapsible=0;recursiveResize=0;outlineConnect=0;portConstraint=eastwest;newEdgeStyle={&quot;curved&quot;:0,&quot;rounded&quot;:0};" parent="1" vertex="1">
          <mxGeometry x="290" y="30" width="100" height="530" as="geometry" />
        </mxCell>
        <mxCell id="5bdBH71OebbFIAX-Ul3I-8" value="" style="html=1;points=[[0,0,0,0,5],[0,1,0,0,-5],[1,0,0,0,5],[1,1,0,0,-5]];perimeter=orthogonalPerimeter;outlineConnect=0;targetShapes=umlLifeline;portConstraint=eastwest;newEdgeStyle={&quot;curved&quot;:0,&quot;rounded&quot;:0};" parent="5bdBH71OebbFIAX-Ul3I-7" vertex="1">
          <mxGeometry x="45" y="140" width="10" height="170" as="geometry" />
        </mxCell>
        <mxCell id="5bdBH71OebbFIAX-Ul3I-9" value="" style="html=1;points=[[0,0,0,0,5],[0,1,0,0,-5],[1,0,0,0,5],[1,1,0,0,-5]];perimeter=orthogonalPerimeter;outlineConnect=0;targetShapes=umlLifeline;portConstraint=eastwest;newEdgeStyle={&quot;curved&quot;:0,&quot;rounded&quot;:0};" parent="5bdBH71OebbFIAX-Ul3I-7" vertex="1">
          <mxGeometry x="50" y="221" width="10" height="19" as="geometry" />
        </mxCell>
        <mxCell id="5bdBH71OebbFIAX-Ul3I-10" value="ValidateUser()" style="html=1;align=left;spacingLeft=2;endArrow=block;rounded=0;edgeStyle=orthogonalEdgeStyle;curved=0;rounded=0;" parent="5bdBH71OebbFIAX-Ul3I-7" target="5bdBH71OebbFIAX-Ul3I-9" edge="1">
          <mxGeometry x="0.0082" relative="1" as="geometry">
            <mxPoint x="55.00000000000003" y="210" as="sourcePoint" />
            <Array as="points">
              <mxPoint x="85" y="210" />
              <mxPoint x="85" y="236" />
            </Array>
            <mxPoint as="offset" />
          </mxGeometry>
        </mxCell>
        <mxCell id="5bdBH71OebbFIAX-Ul3I-11" value="" style="html=1;points=[[0,0,0,0,5],[0,1,0,0,-5],[1,0,0,0,5],[1,1,0,0,-5]];perimeter=orthogonalPerimeter;outlineConnect=0;targetShapes=umlLifeline;portConstraint=eastwest;newEdgeStyle={&quot;curved&quot;:0,&quot;rounded&quot;:0};" parent="5bdBH71OebbFIAX-Ul3I-7" vertex="1">
          <mxGeometry x="50" y="260" width="10" height="20" as="geometry" />
        </mxCell>
        <mxCell id="5bdBH71OebbFIAX-Ul3I-12" value="GenerateJwt()" style="html=1;align=left;spacingLeft=2;endArrow=block;rounded=0;edgeStyle=orthogonalEdgeStyle;curved=0;rounded=0;" parent="5bdBH71OebbFIAX-Ul3I-7" target="5bdBH71OebbFIAX-Ul3I-11" edge="1">
          <mxGeometry relative="1" as="geometry">
            <mxPoint x="55" y="250" as="sourcePoint" />
            <Array as="points">
              <mxPoint x="85" y="250" />
              <mxPoint x="85" y="270" />
            </Array>
          </mxGeometry>
        </mxCell>
        <mxCell id="5bdBH71OebbFIAX-Ul3I-13" value=":FoodAuth - Database" style="shape=umlLifeline;perimeter=lifelinePerimeter;whiteSpace=wrap;html=1;container=1;dropTarget=0;collapsible=0;recursiveResize=0;outlineConnect=0;portConstraint=eastwest;newEdgeStyle={&quot;curved&quot;:0,&quot;rounded&quot;:0};" parent="1" vertex="1">
          <mxGeometry x="450" y="30" width="100" height="530" as="geometry" />
        </mxCell>
        <mxCell id="5bdBH71OebbFIAX-Ul3I-14" value="" style="html=1;points=[[0,0,0,0,5],[0,1,0,0,-5],[1,0,0,0,5],[1,1,0,0,-5]];perimeter=orthogonalPerimeter;outlineConnect=0;targetShapes=umlLifeline;portConstraint=eastwest;newEdgeStyle={&quot;curved&quot;:0,&quot;rounded&quot;:0};" parent="5bdBH71OebbFIAX-Ul3I-13" vertex="1">
          <mxGeometry x="45" y="161" width="10" height="30" as="geometry" />
        </mxCell>
        <mxCell id="5bdBH71OebbFIAX-Ul3I-15" value="GetUserByLoginName()" style="html=1;verticalAlign=bottom;endArrow=block;curved=0;rounded=0;entryX=0;entryY=0;entryDx=0;entryDy=5;entryPerimeter=0;" parent="1" edge="1">
          <mxGeometry width="80" relative="1" as="geometry">
            <mxPoint x="345" y="190" as="sourcePoint" />
            <mxPoint x="495" y="191" as="targetPoint" />
            <Array as="points">
              <mxPoint x="400" y="190" />
            </Array>
          </mxGeometry>
        </mxCell>
        <mxCell id="5bdBH71OebbFIAX-Ul3I-16" value="return User" style="html=1;verticalAlign=bottom;endArrow=open;dashed=1;endSize=8;curved=0;rounded=0;" parent="1" edge="1">
          <mxGeometry relative="1" as="geometry">
            <mxPoint x="494.5" y="220" as="sourcePoint" />
            <mxPoint x="345" y="220" as="targetPoint" />
          </mxGeometry>
        </mxCell>
        <mxCell id="5bdBH71OebbFIAX-Ul3I-17" value="api/v1/Login" style="html=1;verticalAlign=bottom;endArrow=block;curved=0;rounded=0;" parent="1" edge="1">
          <mxGeometry width="80" relative="1" as="geometry">
            <mxPoint x="204.9999999999999" y="170" as="sourcePoint" />
            <mxPoint x="335" y="170" as="targetPoint" />
            <Array as="points">
              <mxPoint x="270" y="170" />
            </Array>
          </mxGeometry>
        </mxCell>
        <mxCell id="5bdBH71OebbFIAX-Ul3I-18" value="return jwt" style="html=1;verticalAlign=bottom;endArrow=open;dashed=1;endSize=8;curved=0;rounded=0;" parent="1" edge="1">
          <mxGeometry relative="1" as="geometry">
            <mxPoint x="330" y="339.99999999999994" as="sourcePoint" />
            <mxPoint x="210" y="340" as="targetPoint" />
          </mxGeometry>
        </mxCell>
        <mxCell id="5bdBH71OebbFIAX-Ul3I-19" value="return authCookies &amp;amp; &lt;br&gt;Redirect To Main page" style="html=1;verticalAlign=bottom;endArrow=open;dashed=1;endSize=8;curved=0;rounded=0;" parent="1" target="5bdBH71OebbFIAX-Ul3I-2" edge="1">
          <mxGeometry relative="1" as="geometry">
            <mxPoint x="190" y="430" as="sourcePoint" />
            <mxPoint x="80" y="430" as="targetPoint" />
          </mxGeometry>
        </mxCell>
        <mxCell id="5bdBH71OebbFIAX-Ul3I-20" value="Account/Login" style="html=1;verticalAlign=bottom;endArrow=block;curved=0;rounded=0;" parent="1" source="5bdBH71OebbFIAX-Ul3I-2" edge="1">
          <mxGeometry width="80" relative="1" as="geometry">
            <mxPoint x="80" y="90" as="sourcePoint" />
            <mxPoint x="195" y="91" as="targetPoint" />
          </mxGeometry>
        </mxCell>
      </root>
    </mxGraphModel>
  </diagram>
  <diagram id="ioBBS5P8XIXsu08cCkWI" name="Use cases">
    <mxGraphModel dx="1434" dy="836" grid="1" gridSize="10" guides="1" tooltips="1" connect="1" arrows="1" fold="1" page="1" pageScale="1" pageWidth="850" pageHeight="1100" math="0" shadow="0">
      <root>
        <mxCell id="0" />
        <mxCell id="1" parent="0" />
        <mxCell id="VgZjXtEQeMnsox9mjJtd-12" value="Аунтентификация на портале" style="ellipse;whiteSpace=wrap;html=1;" parent="1" vertex="1">
          <mxGeometry x="330" y="40" width="191.87" height="60" as="geometry" />
        </mxCell>
        <mxCell id="VgZjXtEQeMnsox9mjJtd-14" value="Администратор" style="shape=umlActor;verticalLabelPosition=bottom;verticalAlign=top;html=1;outlineConnect=0;" parent="1" vertex="1">
          <mxGeometry x="740" y="140" width="30" height="60" as="geometry" />
        </mxCell>
        <mxCell id="VgZjXtEQeMnsox9mjJtd-20" value="" style="endArrow=classic;html=1;rounded=0;entryX=1;entryY=0.5;entryDx=0;entryDy=0;" parent="1" target="VgZjXtEQeMnsox9mjJtd-12" edge="1">
          <mxGeometry width="50" height="50" relative="1" as="geometry">
            <mxPoint x="720" y="170" as="sourcePoint" />
            <mxPoint x="510" y="120" as="targetPoint" />
          </mxGeometry>
        </mxCell>
        <mxCell id="VgZjXtEQeMnsox9mjJtd-27" value="Добавление пользователя" style="ellipse;whiteSpace=wrap;html=1;" parent="1" vertex="1">
          <mxGeometry x="330" y="120" width="191.87" height="50" as="geometry" />
        </mxCell>
        <mxCell id="VgZjXtEQeMnsox9mjJtd-28" value="Изменения статуса пользователя" style="ellipse;whiteSpace=wrap;html=1;" parent="1" vertex="1">
          <mxGeometry x="330" y="200" width="191.87" height="50" as="geometry" />
        </mxCell>
        <mxCell id="VgZjXtEQeMnsox9mjJtd-29" value="" style="endArrow=classic;html=1;rounded=0;entryX=1;entryY=0.5;entryDx=0;entryDy=0;" parent="1" target="VgZjXtEQeMnsox9mjJtd-27" edge="1">
          <mxGeometry width="50" height="50" relative="1" as="geometry">
            <mxPoint x="720" y="170" as="sourcePoint" />
            <mxPoint x="510" y="290" as="targetPoint" />
          </mxGeometry>
        </mxCell>
        <mxCell id="VgZjXtEQeMnsox9mjJtd-30" value="" style="endArrow=classic;html=1;rounded=0;entryX=1;entryY=0.5;entryDx=0;entryDy=0;" parent="1" target="VgZjXtEQeMnsox9mjJtd-28" edge="1">
          <mxGeometry width="50" height="50" relative="1" as="geometry">
            <mxPoint x="720" y="170" as="sourcePoint" />
            <mxPoint x="510" y="290" as="targetPoint" />
          </mxGeometry>
        </mxCell>
        <mxCell id="VgZjXtEQeMnsox9mjJtd-31" value="Изменения пароля" style="ellipse;whiteSpace=wrap;html=1;" parent="1" vertex="1">
          <mxGeometry x="330" y="270" width="191.87" height="50" as="geometry" />
        </mxCell>
        <mxCell id="VgZjXtEQeMnsox9mjJtd-32" value="" style="endArrow=classic;html=1;rounded=0;entryX=1;entryY=0.5;entryDx=0;entryDy=0;" parent="1" target="VgZjXtEQeMnsox9mjJtd-31" edge="1">
          <mxGeometry width="50" height="50" relative="1" as="geometry">
            <mxPoint x="720" y="170" as="sourcePoint" />
            <mxPoint x="510" y="340" as="targetPoint" />
          </mxGeometry>
        </mxCell>
        <mxCell id="VgZjXtEQeMnsox9mjJtd-43" value="Повар" style="shape=umlActor;verticalLabelPosition=bottom;verticalAlign=top;html=1;outlineConnect=0;" parent="1" vertex="1">
          <mxGeometry x="110" y="90" width="30" height="60" as="geometry" />
        </mxCell>
        <mxCell id="VgZjXtEQeMnsox9mjJtd-44" value="" style="endArrow=classic;html=1;rounded=0;entryX=0;entryY=0.5;entryDx=0;entryDy=0;" parent="1" target="VgZjXtEQeMnsox9mjJtd-12" edge="1">
          <mxGeometry width="50" height="50" relative="1" as="geometry">
            <mxPoint x="140" y="120" as="sourcePoint" />
            <mxPoint x="510" y="240" as="targetPoint" />
          </mxGeometry>
        </mxCell>
        <mxCell id="VgZjXtEQeMnsox9mjJtd-45" value="" style="endArrow=classic;html=1;rounded=0;entryX=0;entryY=0.5;entryDx=0;entryDy=0;" parent="1" target="VgZjXtEQeMnsox9mjJtd-31" edge="1">
          <mxGeometry width="50" height="50" relative="1" as="geometry">
            <mxPoint x="140" y="120" as="sourcePoint" />
            <mxPoint x="510" y="240" as="targetPoint" />
          </mxGeometry>
        </mxCell>
        <mxCell id="VgZjXtEQeMnsox9mjJtd-46" value="Менеджер" style="shape=umlActor;verticalLabelPosition=bottom;verticalAlign=top;html=1;outlineConnect=0;" parent="1" vertex="1">
          <mxGeometry x="110" y="250" width="30" height="60" as="geometry" />
        </mxCell>
        <mxCell id="VgZjXtEQeMnsox9mjJtd-48" value="" style="endArrow=classic;html=1;rounded=0;entryX=0;entryY=0.5;entryDx=0;entryDy=0;" parent="1" target="VgZjXtEQeMnsox9mjJtd-12" edge="1">
          <mxGeometry width="50" height="50" relative="1" as="geometry">
            <mxPoint x="150" y="280" as="sourcePoint" />
            <mxPoint x="340" y="140" as="targetPoint" />
          </mxGeometry>
        </mxCell>
        <mxCell id="VgZjXtEQeMnsox9mjJtd-49" value="" style="endArrow=classic;html=1;rounded=0;entryX=0;entryY=0.5;entryDx=0;entryDy=0;" parent="1" target="VgZjXtEQeMnsox9mjJtd-31" edge="1">
          <mxGeometry width="50" height="50" relative="1" as="geometry">
            <mxPoint x="150" y="280" as="sourcePoint" />
            <mxPoint x="340" y="140" as="targetPoint" />
          </mxGeometry>
        </mxCell>
        <mxCell id="VgZjXtEQeMnsox9mjJtd-50" value="Сброс пароля" style="ellipse;whiteSpace=wrap;html=1;" parent="1" vertex="1">
          <mxGeometry x="330" y="340" width="191.87" height="50" as="geometry" />
        </mxCell>
        <mxCell id="VgZjXtEQeMnsox9mjJtd-51" value="" style="endArrow=classic;html=1;rounded=0;entryX=1;entryY=0.5;entryDx=0;entryDy=0;" parent="1" target="VgZjXtEQeMnsox9mjJtd-50" edge="1">
          <mxGeometry width="50" height="50" relative="1" as="geometry">
            <mxPoint x="720" y="170" as="sourcePoint" />
            <mxPoint x="340" y="140" as="targetPoint" />
          </mxGeometry>
        </mxCell>
        <mxCell id="cIJqZWwMuvuHd4JVNrdH-1" value="Удаление API ключа" style="ellipse;whiteSpace=wrap;html=1;" vertex="1" parent="1">
          <mxGeometry x="590" y="340" width="191.87" height="50" as="geometry" />
        </mxCell>
        <mxCell id="cIJqZWwMuvuHd4JVNrdH-2" value="Создание API ключа" style="ellipse;whiteSpace=wrap;html=1;" vertex="1" parent="1">
          <mxGeometry x="570" y="20" width="191.87" height="50" as="geometry" />
        </mxCell>
        <mxCell id="cIJqZWwMuvuHd4JVNrdH-3" value="" style="endArrow=classic;html=1;rounded=0;entryX=0.5;entryY=1;entryDx=0;entryDy=0;" edge="1" parent="1" target="cIJqZWwMuvuHd4JVNrdH-2">
          <mxGeometry width="50" height="50" relative="1" as="geometry">
            <mxPoint x="720" y="170" as="sourcePoint" />
            <mxPoint x="450" y="400" as="targetPoint" />
          </mxGeometry>
        </mxCell>
        <mxCell id="cIJqZWwMuvuHd4JVNrdH-4" value="" style="endArrow=classic;html=1;rounded=0;entryX=0.5;entryY=0;entryDx=0;entryDy=0;" edge="1" parent="1" target="cIJqZWwMuvuHd4JVNrdH-1">
          <mxGeometry width="50" height="50" relative="1" as="geometry">
            <mxPoint x="720" y="170" as="sourcePoint" />
            <mxPoint x="450" y="400" as="targetPoint" />
          </mxGeometry>
        </mxCell>
      </root>
    </mxGraphModel>
  </diagram>
</mxfile>
